<svg width="15" height="18" viewBox="0 0 15 18" fill="none" xmlns="http://www.w3.org/2000/svg">
<mask id="path-1-inside-1_138_499" fill="white">
<path fill-rule="evenodd" clip-rule="evenodd" d="M4.61742 0.823364C3.19847 0.823364 2.04819 1.97365 2.04819 3.39259V10.8596C1.26093 11.5655 0.765625 12.5904 0.765625 13.731C0.765625 15.8603 2.49174 17.5864 4.62102 17.5864C6.7503 17.5864 8.47642 15.8603 8.47642 13.731C8.47642 12.5869 7.97809 11.5592 7.18665 10.8531V3.39259C7.18665 1.97365 6.03636 0.823364 4.61742 0.823364Z"/>
</mask>
<path d="M2.04819 10.8596L2.58238 11.4554L2.84838 11.2169V10.8596H2.04819ZM7.18665 10.8531H6.38645V11.2116L6.65394 11.4503L7.18665 10.8531ZM2.84838 3.39259C2.84838 2.41558 3.6404 1.62356 4.61742 1.62356V0.023172C2.75654 0.023172 1.24799 1.53171 1.24799 3.39259H2.84838ZM2.84838 10.8596V3.39259H1.24799V10.8596H2.84838ZM1.56582 13.731C1.56582 12.8272 1.95724 12.0159 2.58238 11.4554L1.514 10.2638C0.564616 11.1151 -0.0345672 12.3536 -0.0345672 13.731H1.56582ZM4.62102 16.7862C2.93368 16.7862 1.56582 15.4183 1.56582 13.731H-0.0345672C-0.0345672 16.3022 2.04981 18.3866 4.62102 18.3866V16.7862ZM7.67622 13.731C7.67622 15.4183 6.30836 16.7862 4.62102 16.7862V18.3866C7.19223 18.3866 9.27661 16.3022 9.27661 13.731H7.67622ZM6.65394 11.4503C7.28241 12.0109 7.67622 12.8244 7.67622 13.731H9.27661C9.27661 12.3494 8.67376 11.1075 7.71935 10.256L6.65394 11.4503ZM6.38645 3.39259V10.8531H7.98684V3.39259H6.38645ZM4.61742 1.62356C5.59443 1.62356 6.38645 2.41558 6.38645 3.39259H7.98684C7.98684 1.53171 6.4783 0.023172 4.61742 0.023172V1.62356Z" fill="#224BDB" mask="url(#path-1-inside-1_138_499)"/>
<circle cx="4.61895" cy="13.731" r="1.88067" fill="#224BDB"/>
<rect x="4.33725" y="5.57168" width="0.561225" height="6.87509" rx="0.280613" stroke="#224BDB" stroke-width="0.561225"/>
<rect x="14.1584" y="11.0283" width="0.499571" height="4.50851" rx="0.249785" transform="rotate(90 14.1584 11.0283)" stroke="#224BDB" stroke-width="0.499571"/>
<rect x="14.1584" y="7.48992" width="0.499571" height="4.50851" rx="0.249785" transform="rotate(90 14.1584 7.48992)" stroke="#224BDB" stroke-width="0.499571"/>
<rect x="11.8147" y="3.95176" width="0.499571" height="2.16447" rx="0.249785" transform="rotate(90 11.8147 3.95176)" stroke="#224BDB" stroke-width="0.499571"/>
<rect x="11.8147" y="9.259" width="0.499571" height="2.16361" rx="0.249785" transform="rotate(90 11.8147 9.259)" stroke="#224BDB" stroke-width="0.499571"/>
<rect x="12.9221" y="5.72084" width="0.499571" height="3.27004" rx="0.249785" transform="rotate(90 12.9221 5.72084)" stroke="#224BDB" stroke-width="0.499571"/>
</svg>
