<svg width="18" height="18" viewBox="0 0 18 18" fill="none" xmlns="http://www.w3.org/2000/svg">
<path fill-rule="evenodd" clip-rule="evenodd" d="M16.439 9.41985C16.2325 9.4092 16.0748 9.23313 16.0748 9.02638C16.0748 8.81963 16.2325 8.64356 16.439 8.63291L17.2301 8.59212C17.4827 8.57909 17.6993 8.7734 17.6993 9.02638C17.6993 9.27936 17.4827 9.47368 17.2301 9.46065L16.439 9.41985ZM15.1179 5.45138C15.2214 5.6303 15.4463 5.70437 15.6304 5.61037L16.3347 5.25078C16.5607 5.1354 16.6511 4.85732 16.524 4.6377C16.3969 4.41808 16.1115 4.35906 15.8989 4.49745L15.236 4.92877C15.0628 5.04151 15.0144 5.27246 15.1179 5.45138ZM12.5018 2.83527C12.6807 2.93881 12.9117 2.8904 13.0244 2.71714L13.4557 2.05432C13.5941 1.84164 13.5351 1.55629 13.3155 1.4292C13.0959 1.3021 12.8178 1.39248 12.7024 1.61847L12.3428 2.32279C12.2488 2.5069 12.3229 2.73174 12.5018 2.83527ZM8.9268 1.87841C9.13355 1.87841 9.30962 1.72066 9.32027 1.51418L9.36107 0.72311C9.3741 0.470466 9.17978 0.253876 8.9268 0.253876C8.67382 0.253876 8.47951 0.470466 8.49254 0.723111L8.53333 1.51418C8.54398 1.72066 8.72005 1.87841 8.9268 1.87841ZM5.3518 2.83527C5.53072 2.73174 5.60479 2.5069 5.51079 2.32279L5.1512 1.61847C5.03582 1.39248 4.75774 1.3021 4.53812 1.4292C4.3185 1.55629 4.25948 1.84164 4.39787 2.05432L4.82919 2.71714C4.94194 2.8904 5.17289 2.93881 5.3518 2.83527ZM2.73569 5.45138C2.83923 5.27247 2.79082 5.04152 2.61756 4.92877L1.95474 4.49745C1.74206 4.35906 1.45671 4.41808 1.32962 4.6377C1.20253 4.85732 1.2929 5.1354 1.51889 5.25078L2.22321 5.61037C2.40732 5.70437 2.63216 5.6303 2.73569 5.45138ZM1.4146 8.63291C1.62108 8.64356 1.77884 8.81963 1.77884 9.02638C1.77884 9.23313 1.62108 9.4092 1.4146 9.41985L0.623532 9.46065C0.370888 9.47368 0.154297 9.27936 0.154297 9.02638C0.154297 8.7734 0.370888 8.57909 0.623532 8.59212L1.4146 8.63291ZM2.73569 12.6014C2.63216 12.4225 2.40732 12.3484 2.22321 12.4424L1.51889 12.802C1.2929 12.9174 1.20253 13.1954 1.32962 13.4151C1.45671 13.6347 1.74206 13.6937 1.95474 13.5553L2.61756 13.124C2.79082 13.0112 2.83923 12.7803 2.73569 12.6014ZM5.3518 15.2175C5.17289 15.114 4.94194 15.1624 4.82919 15.3356L4.39787 15.9984C4.25948 16.2111 4.3185 16.4965 4.53812 16.6236C4.75774 16.7507 5.03582 16.6603 5.1512 16.4343L5.51079 15.73C5.60479 15.5459 5.53072 15.321 5.3518 15.2175ZM8.9268 16.1744C8.72005 16.1744 8.54398 16.3321 8.53333 16.5386L8.49254 17.3297C8.47951 17.5823 8.67382 17.7989 8.9268 17.7989C9.17978 17.7989 9.3741 17.5823 9.36107 17.3297L9.32027 16.5386C9.30962 16.3321 9.13355 16.1744 8.9268 16.1744ZM12.5018 15.2175C12.3229 15.321 12.2488 15.5459 12.3428 15.73L12.7024 16.4343C12.8178 16.6603 13.0959 16.7507 13.3155 16.6236C13.5351 16.4965 13.5941 16.2111 13.4557 15.9984L13.0244 15.3356C12.9117 15.1624 12.6807 15.114 12.5018 15.2175ZM15.1179 12.6014C15.0144 12.7803 15.0628 13.0112 15.236 13.124L15.8989 13.5553C16.1115 13.6937 16.3969 13.6347 16.524 13.4151C16.6511 13.1954 16.5607 12.9174 16.3347 12.802L15.6304 12.4424C15.4463 12.3484 15.2214 12.4225 15.1179 12.6014Z" fill="#FFD400"/>
<path d="M14.9376 9.02638C14.9376 12.3461 12.2465 15.0372 8.92681 15.0372C5.60714 15.0372 2.91602 12.3461 2.91602 9.02638C2.91602 5.70671 5.60714 3.01559 8.92681 3.01559C12.2465 3.01559 14.9376 5.70671 14.9376 9.02638Z" fill="#FFD400"/>
</svg>
