<svg width="26" height="26" viewBox="0 0 26 26" fill="none" xmlns="http://www.w3.org/2000/svg">
<rect x="0.03125" y="0.241211" width="25.2773" height="25.2773" rx="5.93132" fill="#939CF9"/>
<path d="M12.6699 8.44214C12.9382 8.44214 13.2004 8.36259 13.4235 8.21356C13.6465 8.06452 13.8204 7.85269 13.923 7.60486C14.0257 7.35702 14.0525 7.08431 14.0002 6.82121C13.9479 6.55811 13.8187 6.31644 13.629 6.12675C13.4393 5.93707 13.1976 5.80789 12.9345 5.75555C12.6714 5.70322 12.3987 5.73008 12.1509 5.83274C11.9031 5.93539 11.6912 6.10924 11.5422 6.33228C11.3932 6.55533 11.3136 6.81756 11.3136 7.08582C11.3136 7.44554 11.4565 7.79052 11.7109 8.04488C11.9652 8.29924 12.3102 8.44214 12.6699 8.44214ZM17.7561 17.9364H17.078V14.5456C17.078 14.3657 17.0065 14.1932 16.8794 14.0661C16.7522 13.9389 16.5797 13.8674 16.3998 13.8674H13.009V12.5111H16.3998C16.5797 12.5111 16.7522 12.4397 16.8794 12.3125C17.0065 12.1853 17.078 12.0128 17.078 11.8329C17.078 11.6531 17.0065 11.4806 16.8794 11.3534C16.7522 11.2262 16.5797 11.1548 16.3998 11.1548H13.009V9.79846C13.009 9.6186 12.9376 9.44611 12.8104 9.31893C12.6832 9.19175 12.5107 9.1203 12.3309 9.1203C12.151 9.1203 11.9785 9.19175 11.8513 9.31893C11.7241 9.44611 11.6527 9.6186 11.6527 9.79846V14.5456C11.6527 14.7255 11.7241 14.8979 11.8513 15.0251C11.9785 15.1523 12.151 15.2238 12.3309 15.2238H15.7217V18.6146C15.7217 18.7944 15.7931 18.9669 15.9203 19.0941C16.0475 19.2213 16.22 19.2927 16.3998 19.2927H17.7561C17.936 19.2927 18.1085 19.2213 18.2357 19.0941C18.3629 18.9669 18.4343 18.7944 18.4343 18.6146C18.4343 18.4347 18.3629 18.2622 18.2357 18.135C18.1085 18.0078 17.936 17.9364 17.7561 17.9364ZM13.1446 16.8513C12.803 17.3068 12.3268 17.6433 11.7834 17.813C11.2399 17.9828 10.6568 17.9772 10.1167 17.7972C9.5766 17.6172 9.10682 17.2717 8.77392 16.8099C8.44102 16.348 8.26189 15.7931 8.26189 15.2238C8.26268 14.6966 8.41704 14.1812 8.70609 13.7404C8.99514 13.2996 9.40636 12.9525 9.88947 12.7417C10.0549 12.6697 10.1851 12.535 10.2512 12.3671C10.3173 12.1993 10.3141 12.012 10.2421 11.8465C10.1702 11.681 10.0354 11.5509 9.86756 11.4848C9.69969 11.4187 9.51241 11.4219 9.34694 11.4939C8.77627 11.7431 8.2704 12.1199 7.8683 12.5954C7.4662 13.0708 7.17859 13.6323 7.02763 14.2364C6.87667 14.8405 6.86638 15.4713 6.99756 16.08C7.12873 16.6887 7.39787 17.2592 7.78425 17.7476C8.17063 18.2359 8.66393 18.629 9.22618 18.8967C9.78842 19.1644 10.4046 19.2994 11.0272 19.2915C11.6499 19.2835 12.2624 19.1327 12.8176 18.8508C13.3729 18.5688 13.8559 18.1632 14.2297 17.6651C14.3376 17.5212 14.384 17.3404 14.3585 17.1623C14.3331 16.9843 14.238 16.8236 14.0941 16.7157C13.9502 16.6078 13.7693 16.5615 13.5913 16.5869C13.4132 16.6123 13.2526 16.7075 13.1446 16.8513Z" fill="white"/>
</svg>
