<svg width="14" height="16" viewBox="0 0 14 16" fill="none" xmlns="http://www.w3.org/2000/svg">
<path d="M12.2979 12.7655C12.5496 12.7655 12.7681 12.5906 12.8175 12.3438C13.091 10.9789 13.2372 9.59051 13.2542 8.19711C13.2542 5.00903 11.9684 2.47266 11.1243 2.47266C10.2803 2.47266 8.99609 5.00903 8.99609 8.19711C9.01259 9.5904 9.15836 10.9787 9.4313 12.3436C9.48066 12.5905 9.69918 12.7655 9.95091 12.7655H12.2979Z" fill="white"/>
<path d="M4.1048 12.891C3.11869 12.891 2.35403 12.6277 1.81083 12.1013C1.26764 11.5664 0.98768 10.8059 0.970966 9.81982H2.55042C2.56713 10.3964 2.70502 10.8185 2.96409 11.0859C3.22315 11.3533 3.60339 11.487 4.1048 11.487C4.62293 11.487 5.01153 11.37 5.27059 11.136C5.52965 10.8937 5.65919 10.5678 5.65919 10.1583C5.65919 9.79893 5.53383 9.50226 5.28312 9.26826C5.04078 9.03427 4.67725 8.91727 4.19255 8.91727H3.0393V7.58853H4.19255C4.59368 7.58853 4.90706 7.48407 5.1327 7.27514C5.35834 7.06622 5.47116 6.79462 5.47116 6.46035C5.47116 6.101 5.35416 5.81269 5.12017 5.59541C4.89453 5.37813 4.55608 5.26949 4.1048 5.26949C3.26911 5.26949 2.81366 5.74165 2.73845 6.68598H1.159C1.17571 5.80015 1.43895 5.11071 1.94872 4.61765C2.46685 4.11624 3.18554 3.86553 4.1048 3.86553C4.5895 3.86553 5.0157 3.92821 5.38341 4.05356C5.75111 4.17056 6.05614 4.34187 6.29849 4.56751C6.54919 4.78479 6.73723 5.04803 6.86258 5.35724C6.98793 5.65808 7.05061 5.99236 7.05061 6.36006C7.05061 6.76119 6.96286 7.12472 6.78737 7.45064C6.61187 7.77656 6.34027 8.0398 5.97257 8.24036C6.39877 8.44929 6.71633 8.72924 6.92526 9.08023C7.13418 9.43122 7.23864 9.82818 7.23864 10.2711C7.23864 10.6639 7.17178 11.019 7.03807 11.3366C6.90436 11.6542 6.7038 11.9299 6.43638 12.1639C6.17731 12.3979 5.85139 12.5776 5.45862 12.7029C5.0742 12.8283 4.62293 12.891 4.1048 12.891Z" fill="white"/>
</svg>
