<svg width="33" height="33" viewBox="0 0 33 33" fill="none" xmlns="http://www.w3.org/2000/svg">
<path d="M5.39851 16.0846C5.39851 15.6615 5.23046 15.2558 4.93133 14.9567C4.63219 14.6575 4.22648 14.4895 3.80344 14.4895H2.20836C1.78532 14.4895 1.3796 14.6575 1.08047 14.9567C0.781334 15.2558 0.613281 15.6615 0.613281 16.0846C0.613281 16.5076 0.781334 16.9133 1.08047 17.2125C1.3796 17.5116 1.78532 17.6796 2.20836 17.6796H3.80344C4.22648 17.6796 4.63219 17.5116 4.93133 17.2125C5.23046 16.9133 5.39851 16.5076 5.39851 16.0846ZM6.41936 24.06L5.28686 25.1925C4.98977 25.4913 4.82302 25.8956 4.82302 26.317C4.82302 26.7384 4.98977 27.1427 5.28686 27.4415C5.58572 27.7386 5.98999 27.9054 6.41139 27.9054C6.83279 27.9054 7.23706 27.7386 7.53592 27.4415L8.66842 26.309C8.92974 26.0039 9.06629 25.6114 9.05078 25.2099C9.03528 24.8085 8.86886 24.4277 8.58478 24.1436C8.30071 23.8595 7.9199 23.6931 7.51846 23.6776C7.11701 23.6621 6.7245 23.7986 6.41936 24.06ZM16.5641 4.91902C16.9871 4.91902 17.3928 4.75097 17.6919 4.45183C17.9911 4.1527 18.1591 3.74698 18.1591 3.32394V1.72887C18.1591 1.30583 17.9911 0.900111 17.6919 0.600976C17.3928 0.301841 16.9871 0.133789 16.5641 0.133789C16.141 0.133789 15.7353 0.301841 15.4362 0.600976C15.137 0.900111 14.969 1.30583 14.969 1.72887V3.32394C14.969 3.74698 15.137 4.1527 15.4362 4.45183C15.7353 4.75097 16.141 4.91902 16.5641 4.91902ZM25.5922 8.6515C26.0106 8.64974 26.4116 8.48361 26.7087 8.18893L27.8413 7.05643C28.0082 6.91343 28.1438 6.73747 28.2396 6.53957C28.3353 6.34168 28.3891 6.12613 28.3976 5.90646C28.4061 5.68679 28.3691 5.46773 28.2889 5.26304C28.2087 5.05835 28.0871 4.87245 27.9316 4.717C27.7762 4.56156 27.5903 4.43992 27.3856 4.35973C27.1809 4.27954 26.9618 4.24252 26.7422 4.25101C26.5225 4.25949 26.3069 4.31329 26.109 4.40903C25.9112 4.50478 25.7352 4.64039 25.5922 4.80737L24.5394 5.93987C24.2424 6.23873 24.0756 6.643 24.0756 7.0644C24.0756 7.4858 24.2424 7.89007 24.5394 8.18893C24.8206 8.46865 25.196 8.63356 25.5922 8.6515ZM6.45126 8.18893C6.74836 8.48361 7.14937 8.64974 7.56782 8.6515C7.77774 8.65272 7.98584 8.61248 8.18018 8.5331C8.37452 8.45372 8.55128 8.33676 8.70032 8.18893C8.99741 7.89007 9.16416 7.4858 9.16416 7.0644C9.16416 6.643 8.99741 6.23873 8.70032 5.93987L7.56782 4.80737C7.42014 4.6576 7.24441 4.53838 7.05067 4.45652C6.85692 4.37467 6.64894 4.33177 6.43862 4.33029C6.22829 4.32881 6.01973 4.36877 5.82485 4.44789C5.62997 4.52701 5.45258 4.64374 5.30281 4.79142C5.15304 4.93909 5.03382 5.11482 4.95197 5.30857C4.87011 5.50232 4.82722 5.71029 4.82573 5.92062C4.82274 6.34539 4.98861 6.75395 5.28686 7.05643L6.45126 8.18893ZM30.9198 14.4895H29.3247C28.9016 14.4895 28.4959 14.6575 28.1968 14.9567C27.8976 15.2558 27.7296 15.6615 27.7296 16.0846C27.7296 16.5076 27.8976 16.9133 28.1968 17.2125C28.4959 17.5116 28.9016 17.6796 29.3247 17.6796H30.9198C31.3428 17.6796 31.7485 17.5116 32.0476 17.2125C32.3468 16.9133 32.5148 16.5076 32.5148 16.0846C32.5148 15.6615 32.3468 15.2558 32.0476 14.9567C31.7485 14.6575 31.3428 14.4895 30.9198 14.4895ZM26.7087 24.06C26.4057 23.8914 26.056 23.8262 25.7126 23.8742C25.3691 23.9222 25.0507 24.0808 24.8055 24.326C24.5603 24.5712 24.4017 24.8896 24.3537 25.2331C24.3057 25.5765 24.3709 25.9262 24.5394 26.2293L25.6719 27.3618C25.9708 27.6588 26.3751 27.8256 26.7965 27.8256C27.2179 27.8256 27.6222 27.6588 27.921 27.3618C28.2181 27.0629 28.3848 26.6586 28.3848 26.2372C28.3848 25.8158 28.2181 25.4116 27.921 25.1127L26.7087 24.06ZM16.5641 7.31164C14.8289 7.31164 13.1328 7.82616 11.6901 8.79014C10.2474 9.75412 9.12293 11.1243 8.45893 12.7273C7.79493 14.3304 7.62119 16.0943 7.9597 17.7961C8.2982 19.4979 9.13374 21.061 10.3607 22.288C11.5876 23.5149 13.1508 24.3504 14.8525 24.6889C16.5543 25.0274 18.3183 24.8537 19.9213 24.1897C21.5244 23.5257 22.8945 22.4012 23.8585 20.9585C24.8225 19.5158 25.337 17.8197 25.337 16.0846C25.3328 13.7591 24.4071 11.5302 22.7628 9.88583C21.1185 8.2415 18.8895 7.31585 16.5641 7.31164ZM16.5641 21.6673C15.4599 21.6673 14.3805 21.3399 13.4624 20.7265C12.5444 20.113 11.8288 19.2411 11.4062 18.221C10.9837 17.2009 10.8731 16.0784 11.0886 14.9954C11.304 13.9125 11.8357 12.9177 12.6164 12.1369C13.3972 11.3562 14.392 10.8245 15.4749 10.6091C16.5579 10.3937 17.6804 10.5042 18.7005 10.9268C19.7206 11.3493 20.5925 12.0649 21.206 12.9829C21.8194 13.901 22.1468 14.9804 22.1468 16.0846C22.1468 17.5652 21.5586 18.9852 20.5117 20.0322C19.4647 21.0792 18.0447 21.6673 16.5641 21.6673ZM16.5641 27.2501C16.141 27.2501 15.7353 27.4182 15.4362 27.7173C15.137 28.0164 14.969 28.4221 14.969 28.8452V30.4403C14.969 30.8633 15.137 31.269 15.4362 31.5682C15.7353 31.8673 16.141 32.0353 16.5641 32.0353C16.9871 32.0353 17.3928 31.8673 17.6919 31.5682C17.9911 31.269 18.1591 30.8633 18.1591 30.4403V28.8452C18.1591 28.4221 17.9911 28.0164 17.6919 27.7173C17.3928 27.4182 16.9871 27.2501 16.5641 27.2501Z" fill="#6E7BF7"/>
</svg>
