<svg width="49" height="39" viewBox="0 0 49 39" fill="none" xmlns="http://www.w3.org/2000/svg">
<path d="M25.2337 19.755C26.41 18.7368 27.3535 17.4774 28.0002 16.0624C28.6468 14.6474 28.9815 13.1098 28.9815 11.554C28.9815 8.6306 27.8202 5.82692 25.753 3.75975C23.6858 1.69258 20.8821 0.53125 17.9587 0.53125C15.0353 0.53125 12.2316 1.69258 10.1644 3.75975C8.09725 5.82692 6.93593 8.6306 6.93593 11.554C6.93591 13.1098 7.27059 14.6474 7.91723 16.0624C8.56388 17.4774 9.50737 18.7368 10.6837 19.755C7.5976 21.1524 4.97931 23.4091 3.14185 26.2552C1.30438 29.1013 0.32551 32.4164 0.322266 35.8041C0.322266 36.3888 0.55453 36.9495 0.967965 37.363C1.3814 37.7764 1.94214 38.0087 2.52682 38.0087C3.1115 38.0087 3.67224 37.7764 4.08568 37.363C4.49911 36.9495 4.73138 36.3888 4.73138 35.8041C4.73138 32.296 6.12497 28.9316 8.60557 26.451C11.0862 23.9704 14.4506 22.5768 17.9587 22.5768C21.4668 22.5768 24.8312 23.9704 27.3118 26.451C29.7924 28.9316 31.186 32.296 31.186 35.8041C31.186 36.3888 31.4183 36.9495 31.8317 37.363C32.2452 37.7764 32.8059 38.0087 33.3906 38.0087C33.9753 38.0087 34.536 37.7764 34.9494 37.363C35.3629 36.9495 35.5951 36.3888 35.5951 35.8041C35.5919 32.4164 34.613 29.1013 32.7756 26.2552C30.9381 23.4091 28.3198 21.1524 25.2337 19.755V19.755ZM17.9587 18.1677C16.6506 18.1677 15.372 17.7798 14.2843 17.0531C13.1967 16.3264 12.349 15.2935 11.8485 14.085C11.3479 12.8765 11.2169 11.5467 11.4721 10.2638C11.7273 8.98084 12.3572 7.8024 13.2821 6.87746C14.2071 5.95252 15.3855 5.32263 16.6684 5.06744C17.9514 4.81225 19.2812 4.94322 20.4896 5.4438C21.6981 5.94437 22.731 6.79206 23.4578 7.87967C24.1845 8.96728 24.5724 10.246 24.5724 11.554C24.5724 13.3081 23.8756 14.9903 22.6353 16.2306C21.395 17.4709 19.7128 18.1677 17.9587 18.1677ZM39.4311 18.8731C40.8419 17.2844 41.7635 15.3217 42.0849 13.2214C42.4063 11.1211 42.1138 8.97265 41.2427 7.03469C40.3715 5.09672 38.9588 3.45183 37.1746 2.29803C35.3904 1.14423 33.3108 0.530682 31.186 0.53125C30.6013 0.53125 30.0406 0.763515 29.6272 1.17695C29.2137 1.59038 28.9815 2.15112 28.9815 2.73581C28.9815 3.32049 29.2137 3.88123 29.6272 4.29466C30.0406 4.70809 30.6013 4.94036 31.186 4.94036C32.9401 4.94036 34.6223 5.63716 35.8626 6.87746C37.1029 8.11776 37.7997 9.79997 37.7997 11.554C37.7966 12.7119 37.4895 13.8488 36.9092 14.8508C36.3289 15.8528 35.4957 16.6849 34.4929 17.2638C34.166 17.4524 33.893 17.7216 33.7 18.0459C33.507 18.3701 33.4005 18.7384 33.3906 19.1156C33.3814 19.4899 33.4676 19.8603 33.6412 20.192C33.8147 20.5237 34.0699 20.8058 34.3826 21.0116L35.2424 21.5847L35.529 21.7391C38.1864 22.9995 40.4282 24.993 41.9905 27.4848C43.5528 29.9767 44.3705 32.8631 44.3472 35.8041C44.3472 36.3888 44.5795 36.9495 44.9929 37.363C45.4064 37.7764 45.9671 38.0087 46.5518 38.0087C47.1365 38.0087 47.6972 37.7764 48.1106 37.363C48.5241 36.9495 48.7563 36.3888 48.7563 35.8041C48.7744 32.4211 47.927 29.0896 46.2949 26.1263C44.6627 23.1629 42.3 20.6661 39.4311 18.8731V18.8731Z" fill="#6E7BF7"/>
</svg>
