<svg width="80" height="57" viewBox="0 0 80 57" fill="none" xmlns="http://www.w3.org/2000/svg">
<path d="M65.5778 17.5521C63.1669 12.0179 59.0075 7.42704 53.7372 4.48355C48.4669 1.54006 42.3766 0.406373 36.4002 1.25632C30.4237 2.10626 24.891 4.89291 20.6503 9.18902C16.4096 13.4851 13.6949 19.0535 12.9226 25.0405C9.16494 25.9404 5.86861 28.1889 3.6596 31.3591C1.45059 34.5293 0.482741 38.4003 0.939846 42.2371C1.39695 46.0738 3.24718 49.6091 6.13916 52.1716C9.03115 54.734 12.7635 56.1451 16.6274 56.137H59.9812C64.7081 56.124 69.2729 54.4123 72.843 51.314C76.4131 48.2158 78.7506 43.9376 79.4291 39.2595C80.1076 34.5815 79.082 29.8154 76.5393 25.8306C73.9966 21.8457 70.1062 18.9076 65.5778 17.5521ZM59.9812 48.2545H16.6274C14.5368 48.2545 12.5318 47.424 11.0536 45.9458C9.57533 44.4675 8.74486 42.4626 8.74486 40.372C8.74486 38.2814 9.57533 36.2765 11.0536 34.7982C12.5318 33.32 14.5368 32.4895 16.6274 32.4895C17.6727 32.4895 18.6751 32.0742 19.4143 31.3351C20.1534 30.596 20.5686 29.5935 20.5686 28.5482C20.5787 23.8868 22.2408 19.3799 25.2598 15.8282C28.2787 12.2764 32.459 9.90984 37.0578 9.14887C41.6567 8.38791 46.3765 9.28182 50.3786 11.6718C54.3807 14.0618 57.406 17.7931 58.917 22.2028C59.1482 22.8727 59.5558 23.4679 60.0968 23.9257C60.6378 24.3835 61.2923 24.6869 61.9912 24.804C64.8801 25.3371 67.4672 26.9265 69.2483 29.2627C71.0295 31.5988 71.8772 34.5143 71.6263 37.4413C71.3754 40.3682 70.0439 43.097 67.8912 45.0959C65.7385 47.0949 62.9187 48.2208 59.9812 48.2545Z" fill="#E9EBFE"/>
</svg>
