<svg width="96" height="72" viewBox="0 0 96 72" fill="none" xmlns="http://www.w3.org/2000/svg">
<path d="M56.4102 10.208L61.2808 15.0786M85.9204 39.7182L81.2879 35.0858" stroke="#FFC453" stroke-width="7.62884" stroke-linecap="round"/>
<path d="M85.9215 10.2085L80.9629 15.166" stroke="#FFC453" stroke-width="7.62884" stroke-linecap="round"/>
<path d="M71.1719 4.11133L71.1719 11.4229" stroke="#FFC453" stroke-width="7.62884" stroke-linecap="round"/>
<path d="M92.0364 24.9795L85.376 24.9795" stroke="#FFC453" stroke-width="7.62884" stroke-linecap="round"/>
<path d="M84.374 24.977C84.374 32.2703 78.4617 38.1826 71.1684 38.1826C63.8752 38.1826 57.9629 32.2703 57.9629 24.977C57.9629 17.6838 63.8752 11.7715 71.1684 11.7715C78.4617 11.7715 84.374 17.6838 84.374 24.977Z" stroke="#FFC453" stroke-width="7.62884"/>
<path d="M64.86 32.7738C62.4492 27.2395 58.2897 22.6487 53.0194 19.7052C47.7491 16.7617 41.6588 15.6281 35.6824 16.478C29.706 17.3279 24.1732 20.1146 19.9325 24.4107C15.6918 28.7068 12.9771 34.2752 12.2048 40.2622C8.44716 41.1621 5.15084 43.4106 2.94183 46.5808C0.73282 49.7509 -0.235032 53.622 0.222073 57.4587C0.679178 61.2955 2.52941 64.8308 5.42139 67.3932C8.31337 69.9557 12.0457 71.3668 15.9096 71.3587H59.2634C63.9904 71.3457 68.5552 69.6339 72.1252 66.5357C75.6953 63.4375 78.0328 59.1592 78.7113 54.4812C79.3898 49.8032 78.3642 45.0371 75.8215 41.0523C73.2788 37.0674 69.3885 34.1293 64.86 32.7738ZM59.2634 63.4762H15.9096C13.819 63.4762 11.8141 62.6457 10.3358 61.1674C8.85756 59.6892 8.02708 57.6842 8.02708 55.5937C8.02708 53.5031 8.85756 51.4982 10.3358 50.0199C11.8141 48.5416 13.819 47.7112 15.9096 47.7112C16.9549 47.7112 17.9574 47.2959 18.6965 46.5568C19.4356 45.8177 19.8508 44.8152 19.8508 43.7699C19.8609 39.1085 21.5231 34.6016 24.542 31.0498C27.5609 27.4981 31.7412 25.1315 36.3401 24.3706C40.939 23.6096 45.6587 24.5035 49.6608 26.8935C53.6629 29.2835 56.6882 33.0148 58.1993 37.4245C58.4305 38.0944 58.838 38.6896 59.379 39.1474C59.9201 39.6051 60.5745 39.9086 61.2734 40.0257C64.1624 40.5588 66.7494 42.1482 68.5305 44.4843C70.3117 46.8205 71.1594 49.736 70.9085 52.663C70.6576 55.5899 69.3261 58.3187 67.1734 60.3176C65.0207 62.3165 62.2009 63.4425 59.2634 63.4762Z" fill="#E9EBFE"/>
</svg>
