<svg width="26" height="26" viewBox="0 0 26 26" fill="none" xmlns="http://www.w3.org/2000/svg">
<rect x="0.199219" y="0.241211" width="25.2773" height="25.2773" rx="5.93132" fill="#939CF9"/>
<path d="M18.3262 15.8015C18.0626 15.54 17.7247 15.3662 17.3587 15.3038C16.9927 15.2413 16.6163 15.2933 16.2809 15.4526L15.5891 14.7668C17.0064 13.2374 18.0757 11.4191 18.7232 9.43695C18.8461 9.09452 18.8691 8.7242 18.7896 8.36919C18.71 8.01418 18.5312 7.68909 18.274 7.43184C18.0167 7.17458 17.6916 6.99575 17.3366 6.91621C16.9816 6.83666 16.6113 6.85967 16.2688 6.98255C14.2867 7.63012 12.4684 8.69936 10.939 10.1167L10.2532 9.42492C10.3956 9.12599 10.4531 8.79363 10.4193 8.46422C10.3855 8.13481 10.2617 7.82106 10.0615 7.5573C9.8613 7.29354 9.59238 7.08995 9.28419 6.96882C8.976 6.84769 8.64042 6.8137 8.3142 6.87055C7.98797 6.9274 7.68368 7.07291 7.43463 7.29115C7.18559 7.50939 7.00139 7.79195 6.9022 8.10788C6.80301 8.42382 6.79266 8.76095 6.87228 9.08238C6.9519 9.40381 7.11842 9.69713 7.35361 9.93024C7.69173 10.2688 8.15046 10.4592 8.62893 10.4596C8.89579 10.4571 9.15877 10.3955 9.39894 10.2791L10.0907 10.9649C8.67338 12.4944 7.60414 14.3127 6.95658 16.2948C6.84379 16.6368 6.82792 17.0033 6.91075 17.3537C6.99358 17.7041 7.17185 18.0247 7.4258 18.28C7.59777 18.4633 7.80429 18.6109 8.03348 18.7141C8.26267 18.8174 8.51001 18.8743 8.76128 18.8816C8.98168 18.8795 9.20059 18.845 9.41097 18.7793C11.3931 18.1317 13.2114 17.0625 14.7409 15.6451L15.4266 16.3369C15.2842 16.6359 15.2267 16.9682 15.2605 17.2976C15.2943 17.627 15.4181 17.9408 15.6183 18.2046C15.8185 18.4683 16.0874 18.6719 16.3956 18.793C16.7038 18.9142 17.0394 18.9482 17.3656 18.8913C17.6918 18.8345 17.9961 18.6889 18.2452 18.4707C18.4942 18.2525 18.6784 17.9699 18.7776 17.654C18.8768 17.338 18.8872 17.0009 18.8075 16.6795C18.7279 16.358 18.5614 16.0647 18.3262 15.8316V15.8015ZM9.05605 9.07601C8.94357 9.18929 8.7907 9.25324 8.63106 9.25381C8.47143 9.25437 8.31811 9.1915 8.20483 9.07902C8.09155 8.96654 8.0276 8.81367 8.02703 8.65403C8.02647 8.4944 8.08934 8.34108 8.20182 8.2278C8.3143 8.11452 8.46717 8.05057 8.62681 8.05C8.78644 8.04944 8.93976 8.11231 9.05304 8.22479C9.16632 8.33727 9.23027 8.49014 9.23084 8.64978C9.2314 8.80941 9.16853 8.96273 9.05605 9.07601ZM16.6358 8.13155C16.7271 8.10148 16.8224 8.08525 16.9185 8.08342C17.0112 8.08267 17.103 8.10036 17.1888 8.13548C17.2745 8.17059 17.3524 8.22243 17.4178 8.28796C17.5159 8.38976 17.5827 8.51751 17.6104 8.6561C17.6381 8.79469 17.6256 8.93832 17.5742 9.06999C17.2565 10.0468 16.8265 10.9835 16.2929 11.8613L13.8445 9.41289C14.7223 8.87933 15.659 8.44934 16.6358 8.13155ZM9.04402 17.6002C8.91283 17.6527 8.76912 17.6656 8.63069 17.6372C8.49227 17.6088 8.36523 17.5404 8.26531 17.4405C8.16539 17.3406 8.097 17.2135 8.0686 17.0751C8.0402 16.9367 8.05306 16.793 8.10557 16.6618C8.42336 15.685 8.85335 14.7483 9.38691 13.8705L11.8353 16.3189C10.9575 16.8524 10.0208 17.2824 9.04402 17.6002ZM12.8399 15.6271L10.0787 12.8659C10.3468 12.502 10.6339 12.1526 10.939 11.8192L13.8927 14.7729C13.5571 15.076 13.2057 15.3611 12.8399 15.6271ZM14.7348 13.9186L11.7872 10.9649C12.1226 10.6597 12.474 10.3726 12.8399 10.1047L15.6071 12.8719C15.3371 13.2359 15.0479 13.5853 14.7409 13.9186H14.7348ZM17.472 17.528C17.4163 17.5841 17.3501 17.6287 17.2772 17.6592C17.2043 17.6897 17.126 17.7056 17.047 17.7058C16.968 17.7061 16.8896 17.6908 16.8165 17.6608C16.7434 17.6308 16.6769 17.5867 16.6208 17.531C16.5647 17.4754 16.5201 17.4092 16.4896 17.3362C16.4591 17.2633 16.4432 17.1851 16.443 17.1061C16.4427 17.027 16.458 16.9487 16.488 16.8756C16.518 16.8024 16.5621 16.7359 16.6178 16.6798C16.7305 16.5678 16.8829 16.5049 17.0419 16.5049C17.2008 16.5049 17.3533 16.5678 17.466 16.6798C17.5725 16.7899 17.6331 16.9364 17.6353 17.0895C17.6375 17.2427 17.5813 17.3909 17.478 17.504L17.472 17.528Z" fill="white"/>
</svg>
