<svg width="27" height="26" viewBox="0 0 27 26" fill="none" xmlns="http://www.w3.org/2000/svg">
<rect x="0.753906" y="0.518555" width="25.2773" height="25.2773" rx="5.93132" fill="#939CF9"/>
<path d="M12.0882 16.4169H12.7402V17.0689C12.7402 17.2419 12.8089 17.4077 12.9312 17.53C13.0534 17.6523 13.2193 17.721 13.3922 17.721C13.5651 17.721 13.731 17.6523 13.8533 17.53C13.9755 17.4077 14.0442 17.2419 14.0442 17.0689V16.4169H14.6962C14.8692 16.4169 15.035 16.3482 15.1573 16.226C15.2796 16.1037 15.3482 15.9378 15.3482 15.7649C15.3482 15.592 15.2796 15.4261 15.1573 15.3039C15.035 15.1816 14.8692 15.1129 14.6962 15.1129H14.0442V14.4609C14.0442 14.288 13.9755 14.1221 13.8533 13.9998C13.731 13.8776 13.5651 13.8089 13.3922 13.8089C13.2193 13.8089 13.0534 13.8776 12.9312 13.9998C12.8089 14.1221 12.7402 14.288 12.7402 14.4609V15.1129H12.0882C11.9153 15.1129 11.7494 15.1816 11.6271 15.3039C11.5049 15.4261 11.4362 15.592 11.4362 15.7649C11.4362 15.9378 11.5049 16.1037 11.6271 16.226C11.7494 16.3482 11.9153 16.4169 12.0882 16.4169ZM17.9563 9.24477H16.6523V8.59276C16.6523 8.07399 16.4462 7.57646 16.0794 7.20963C15.7125 6.8428 15.215 6.63672 14.6962 6.63672H12.0882C11.5694 6.63672 11.0719 6.8428 10.7051 7.20963C10.3382 7.57646 10.1321 8.07399 10.1321 8.59276V9.24477H8.82811C8.30934 9.24477 7.81181 9.45086 7.44498 9.81769C7.07815 10.1845 6.87207 10.682 6.87207 11.2008V17.721C6.87207 18.2397 7.07815 18.7373 7.44498 19.1041C7.81181 19.4709 8.30934 19.677 8.82811 19.677H17.9563C18.4751 19.677 18.9726 19.4709 19.3394 19.1041C19.7063 18.7373 19.9123 18.2397 19.9123 17.721V11.2008C19.9123 10.682 19.7063 10.1845 19.3394 9.81769C18.9726 9.45086 18.4751 9.24477 17.9563 9.24477ZM11.4362 8.59276C11.4362 8.41984 11.5049 8.25399 11.6271 8.13172C11.7494 8.00944 11.9153 7.94075 12.0882 7.94075H14.6962C14.8692 7.94075 15.035 8.00944 15.1573 8.13172C15.2796 8.25399 15.3482 8.41984 15.3482 8.59276V9.24477H11.4362V8.59276ZM18.6083 17.721C18.6083 17.8939 18.5396 18.0597 18.4173 18.182C18.2951 18.3043 18.1292 18.373 17.9563 18.373H8.82811C8.65519 18.373 8.48934 18.3043 8.36707 18.182C8.24479 18.0597 8.1761 17.8939 8.1761 17.721V13.1569H18.6083V17.721ZM18.6083 11.8528H8.1761V11.2008C8.1761 11.0279 8.24479 10.862 8.36707 10.7398C8.48934 10.6175 8.65519 10.5488 8.82811 10.5488H17.9563C18.1292 10.5488 18.2951 10.6175 18.4173 10.7398C18.5396 10.862 18.6083 11.0279 18.6083 11.2008V11.8528Z" fill="white"/>
</svg>
