<svg width="28" height="28" viewBox="0 0 28 28" fill="none" xmlns="http://www.w3.org/2000/svg">
<path fill-rule="evenodd" clip-rule="evenodd" d="M13.7749 0.501953C6.24317 0.501953 0.135742 6.71154 0.135742 14.3721C0.135742 20.5003 4.04376 25.6995 9.463 27.5336C10.1446 27.662 10.3949 27.2327 10.3949 26.8663C10.3949 26.5356 10.3822 25.443 10.3764 24.284C6.58195 25.123 5.78129 22.6475 5.78129 22.6475C5.16086 21.0442 4.26691 20.6179 4.26691 20.6179C3.02943 19.7571 4.36019 19.7748 4.36019 19.7748C5.72979 19.8724 6.45096 21.2041 6.45096 21.2041C7.66743 23.3246 9.64165 22.7115 10.42 22.3571C10.5424 21.4609 10.8958 20.8485 11.2859 20.5024C8.25646 20.1517 5.07187 18.9624 5.07187 13.6476C5.07187 12.1333 5.60467 10.896 6.47716 9.92463C6.33554 9.57505 5.86869 8.16454 6.60928 6.254C6.60928 6.254 7.75461 5.88122 10.361 7.67577C11.449 7.36845 12.6157 7.21433 13.7749 7.20904C14.934 7.21433 16.1016 7.36845 17.1916 7.67577C19.7949 5.88122 20.9386 6.254 20.9386 6.254C21.681 8.16454 21.2139 9.57505 21.0723 9.92463C21.9468 10.896 22.476 12.1333 22.476 13.6476C22.476 18.975 19.2853 20.148 16.2482 20.4914C16.7374 20.9218 17.1733 21.7659 17.1733 23.06C17.1733 24.9156 17.1575 26.4093 17.1575 26.8663C17.1575 27.2355 17.403 27.668 18.0944 27.5317C23.5107 25.6956 27.4137 20.4983 27.4137 14.3721C27.4137 6.71154 21.3072 0.501953 13.7749 0.501953Z" fill="black"/>
<path fill-rule="evenodd" clip-rule="evenodd" d="M5.30156 20.4165C5.27153 20.4856 5.16492 20.5061 5.0678 20.4588C4.96888 20.4135 4.91332 20.3196 4.94539 20.2504C4.97475 20.1795 5.08158 20.1599 5.18028 20.207C5.27943 20.2525 5.3359 20.3474 5.30156 20.4165Z" fill="black"/>
<path fill-rule="evenodd" clip-rule="evenodd" d="M5.85401 21.0431C5.78897 21.1044 5.66181 21.0759 5.57553 20.979C5.48632 20.8823 5.4696 20.753 5.53555 20.6907C5.60263 20.6294 5.72595 20.6581 5.81539 20.7548C5.90461 20.8527 5.922 20.9811 5.85401 21.0431Z" fill="black"/>
<path fill-rule="evenodd" clip-rule="evenodd" d="M6.39178 21.8419C6.30821 21.901 6.17157 21.8456 6.0871 21.7223C6.00353 21.5989 6.00353 21.451 6.08891 21.3918C6.1736 21.3325 6.30821 21.3858 6.39381 21.5082C6.47716 21.6334 6.47716 21.7815 6.39178 21.8419Z" fill="black"/>
<path fill-rule="evenodd" clip-rule="evenodd" d="M7.12853 22.6137C7.05377 22.6975 6.89454 22.675 6.778 22.5606C6.65875 22.4488 6.62554 22.2901 6.70053 22.2062C6.77619 22.1222 6.93633 22.1458 7.05377 22.2593C7.17212 22.3709 7.20826 22.5308 7.12853 22.6137Z" fill="black"/>
<path fill-rule="evenodd" clip-rule="evenodd" d="M8.14489 23.0618C8.11192 23.1704 7.95856 23.2198 7.80407 23.1737C7.64981 23.1261 7.54885 22.9989 7.58002 22.8891C7.61209 22.7798 7.76613 22.7283 7.92174 22.7777C8.07578 22.825 8.17696 22.9513 8.14489 23.0618Z" fill="black"/>
<path fill-rule="evenodd" clip-rule="evenodd" d="M9.26108 23.145C9.26492 23.2593 9.13392 23.3542 8.97176 23.356C8.80869 23.3599 8.67679 23.2674 8.67498 23.1548C8.67498 23.0393 8.80304 22.9454 8.96611 22.9426C9.12828 22.9394 9.26108 23.0313 9.26108 23.145Z" fill="black"/>
<path fill-rule="evenodd" clip-rule="evenodd" d="M10.2998 22.9651C10.3192 23.0767 10.2065 23.1914 10.0455 23.2217C9.88716 23.2513 9.74058 23.1824 9.72048 23.0717C9.70083 22.9573 9.81556 22.8427 9.97366 22.8131C10.1349 22.7846 10.2792 22.8516 10.2998 22.9651Z" fill="black"/>
</svg>
