<svg width="28" height="29" viewBox="0 0 28 29" fill="none" xmlns="http://www.w3.org/2000/svg">
<path fill-rule="evenodd" clip-rule="evenodd" d="M0.0834961 14.3989C0.0834961 6.85327 6.20126 0.736328 13.7479 0.736328C21.2945 0.736328 27.4123 6.85327 27.4123 14.3989C27.4123 21.9445 21.2945 28.0615 13.7479 28.0615C6.20126 28.0615 0.0834961 21.9445 0.0834961 14.3989ZM13.7486 7.1122C11.7694 7.1122 11.521 7.12085 10.7436 7.15622C9.96776 7.19175 9.43818 7.31456 8.9748 7.49475C8.49548 7.68087 8.08888 7.92984 7.6838 8.33501C7.27842 8.74004 7.02942 9.14658 6.84267 9.62568C6.662 10.0892 6.53902 10.6188 6.5041 11.3942C6.46933 12.1715 6.46022 12.42 6.46022 14.399C6.46022 16.378 6.46902 16.6256 6.50425 17.4028C6.53993 18.1785 6.66276 18.7081 6.84283 19.1714C7.02912 19.6506 7.27812 20.0572 7.68335 20.4622C8.08827 20.8675 8.49487 21.1171 8.97389 21.3032C9.43757 21.4834 9.9673 21.6062 10.743 21.6417C11.5204 21.6771 11.7686 21.6858 13.7477 21.6858C15.7271 21.6858 15.9747 21.6771 16.7521 21.6417C17.5279 21.6062 18.0581 21.4834 18.5218 21.3032C19.0009 21.1171 19.4069 20.8675 19.8118 20.4622C20.2172 20.0572 20.4662 19.6506 20.653 19.1715C20.8321 18.7081 20.9551 18.1784 20.9916 17.403C21.0265 16.6257 21.0356 16.378 21.0356 14.399C21.0356 12.42 21.0265 12.1717 20.9916 11.3944C20.9551 10.6187 20.8321 10.0892 20.653 9.62584C20.4662 9.14658 20.2172 8.74004 19.8118 8.33501C19.4065 7.92968 19.0011 7.68072 18.5213 7.49475C18.0567 7.31456 17.5268 7.19175 16.751 7.15622C15.9736 7.12085 15.7261 7.1122 13.7463 7.1122H13.7486Z" fill="black"/>
<path fill-rule="evenodd" clip-rule="evenodd" d="M13.0948 8.42534C13.2888 8.42503 13.5054 8.42534 13.7486 8.42534C15.6944 8.42534 15.925 8.43232 16.6934 8.46724C17.404 8.49972 17.7896 8.61844 18.0465 8.71818C18.3866 8.85025 18.6291 9.00813 18.884 9.26317C19.1391 9.5182 19.297 9.7611 19.4294 10.1011C19.5291 10.3577 19.648 10.7433 19.6804 11.4538C19.7153 12.2219 19.7229 12.4527 19.7229 14.3973C19.7229 16.342 19.7153 16.5727 19.6804 17.3409C19.6479 18.0513 19.5291 18.4369 19.4294 18.6935C19.2973 19.0335 19.1391 19.2757 18.884 19.5305C18.629 19.7856 18.3868 19.9435 18.0465 20.0755C17.79 20.1757 17.404 20.2941 16.6934 20.3266C15.9252 20.3615 15.6944 20.3691 13.7486 20.3691C11.8026 20.3691 11.572 20.3615 10.8037 20.3266C10.0932 20.2938 9.70752 20.1751 9.45048 20.0754C9.11038 19.9433 8.86746 19.7854 8.61239 19.5304C8.35731 19.2754 8.19941 19.0331 8.06702 18.6929C7.96727 18.4363 7.84838 18.0507 7.81605 17.3403C7.78113 16.5721 7.77414 16.3414 7.77414 14.3955C7.77414 12.4496 7.78113 12.2201 7.81605 11.4519C7.84854 10.7415 7.96727 10.3559 8.06702 10.099C8.19911 9.75897 8.35731 9.51608 8.61239 9.26104C8.86746 9.006 9.11038 8.84812 9.45048 8.71575C9.70737 8.61555 10.0932 8.49714 10.8037 8.4645C11.476 8.43414 11.7366 8.42503 13.0948 8.42352V8.42534ZM17.6387 9.63525C17.1559 9.63525 16.7642 10.0265 16.7642 10.5094C16.7642 10.9921 17.1559 11.3838 17.6387 11.3838C18.1215 11.3838 18.5133 10.9921 18.5133 10.5094C18.5133 10.0266 18.1215 9.63525 17.6387 9.63525ZM13.7486 10.6569C11.6817 10.6569 10.006 12.3324 10.006 14.399C10.006 16.4655 11.6817 18.1403 13.7486 18.1403C15.8154 18.1403 17.4905 16.4655 17.4905 14.399C17.4905 12.3324 15.8154 10.6569 13.7486 10.6569Z" fill="black"/>
<path fill-rule="evenodd" clip-rule="evenodd" d="M13.7486 11.9701C15.0901 11.9701 16.1778 13.0575 16.1778 14.399C16.1778 15.7404 15.0901 16.8279 13.7486 16.8279C12.4069 16.8279 11.3193 15.7404 11.3193 14.399C11.3193 13.0575 12.4069 11.9701 13.7486 11.9701Z" fill="black"/>
</svg>
