<svg width="14" height="16" viewBox="0 0 14 16" fill="none" xmlns="http://www.w3.org/2000/svg">
<path d="M12.2061 12.7655C12.4578 12.7655 12.6763 12.5906 12.7257 12.3438C12.9992 10.9789 13.1454 9.59051 13.1624 8.19711C13.1624 5.00903 11.8766 2.47266 11.0325 2.47266C10.1885 2.47266 8.9043 5.00903 8.9043 8.19711C8.92079 9.5904 9.06656 10.9787 9.33951 12.3436C9.38887 12.5905 9.60738 12.7655 9.85911 12.7655H12.2061Z" fill="white"/>
<path d="M0.854069 11.4369L3.68706 8.71671C3.96284 8.44929 4.19683 8.21529 4.38904 8.01473C4.58125 7.81416 4.73167 7.63031 4.84031 7.46317C4.95731 7.29604 5.04087 7.14143 5.09102 6.99937C5.14116 6.8573 5.16623 6.71105 5.16623 6.56063C5.16623 6.16785 5.04505 5.85447 4.8027 5.62048C4.56035 5.38648 4.22608 5.26949 3.79988 5.26949C3.37367 5.26949 3.0394 5.39484 2.79705 5.64555C2.5547 5.8879 2.43352 6.23471 2.43352 6.68598H0.854069C0.854069 6.25978 0.920924 5.87118 1.05463 5.52019C1.18835 5.16921 1.38055 4.87254 1.63126 4.63018C1.89032 4.38783 2.19953 4.1998 2.55888 4.06609C2.92658 3.93238 3.34025 3.86553 3.79988 3.86553C4.25951 3.86553 4.66899 3.93238 5.02834 4.06609C5.39604 4.19145 5.70525 4.3753 5.95596 4.61765C6.21502 4.85164 6.41141 5.13578 6.54512 5.47005C6.67883 5.79597 6.74568 6.1595 6.74568 6.56063C6.74568 7.05369 6.5869 7.53839 6.26934 8.01473C5.95178 8.49107 5.45872 9.03427 4.79017 9.64432L2.82212 11.4369H6.74568V12.7656H0.854069V11.4369Z" fill="white"/>
</svg>
