<svg width="27" height="26" viewBox="0 0 27 26" fill="none" xmlns="http://www.w3.org/2000/svg">
<rect x="0.921875" y="0.238281" width="25.2773" height="25.2773" rx="5.93132" fill="#939CF9"/>
<path d="M20.7717 12.6203C19.3035 9.59856 16.5414 7.72363 13.5612 7.72363C10.5811 7.72363 7.81899 9.59856 6.35072 12.6203C6.3107 12.7016 6.29004 12.7894 6.29004 12.8781C6.29004 12.9668 6.3107 13.0545 6.35072 13.1358C7.81899 16.1576 10.5811 18.0325 13.5612 18.0325C16.5414 18.0325 19.3035 16.1576 20.7717 13.1358C20.8118 13.0545 20.8324 12.9668 20.8324 12.8781C20.8324 12.7894 20.8118 12.7016 20.7717 12.6203ZM13.5612 16.7439C11.2498 16.7439 9.07647 15.2684 7.81899 12.8781C9.07647 10.4877 11.2498 9.01224 13.5612 9.01224C15.8727 9.01224 18.046 10.4877 19.3035 12.8781C18.046 15.2684 15.8727 16.7439 13.5612 16.7439ZM13.5612 10.3008C12.9862 10.3008 12.4241 10.452 11.9459 10.7352C11.4678 11.0184 11.0951 11.4209 10.8751 11.8918C10.655 12.3627 10.5974 12.8809 10.7096 13.3808C10.8218 13.8808 11.0987 14.34 11.5053 14.7004C11.912 15.0609 12.43 15.3063 12.994 15.4058C13.558 15.5052 14.1426 15.4542 14.6739 15.2591C15.2051 15.064 15.6592 14.7337 15.9787 14.3099C16.2982 13.8861 16.4687 13.3878 16.4687 12.8781C16.4687 12.1945 16.1624 11.539 15.6171 11.0557C15.0719 10.5724 14.3323 10.3008 13.5612 10.3008ZM13.5612 14.1667C13.2737 14.1667 12.9926 14.0911 12.7536 13.9495C12.5145 13.8079 12.3282 13.6066 12.2182 13.3712C12.1081 13.1357 12.0793 12.8766 12.1354 12.6267C12.1915 12.3767 12.33 12.1471 12.5333 11.9669C12.7366 11.7867 12.9956 11.6639 13.2776 11.6142C13.5596 11.5645 13.8519 11.59 14.1175 11.6875C14.3832 11.7851 14.6102 11.9502 14.77 12.1621C14.9297 12.3741 15.015 12.6232 15.015 12.8781C15.015 13.2198 14.8618 13.5476 14.5892 13.7892C14.3165 14.0309 13.9468 14.1667 13.5612 14.1667Z" fill="white"/>
</svg>
