<svg width="37" height="36" viewBox="0 0 37 36" fill="none" xmlns="http://www.w3.org/2000/svg">
<rect x="1.19911" y="0.823129" width="34.486" height="34.486" rx="5.57125" stroke="#4A4A4A" stroke-width="1.23805"/>
<path d="M7.95508 24.7941C9.51351 23.9036 12.9075 22.8997 18.06 24.7941C24.3678 27.1132 27.9101 25.6006 28.9266 24.7941" stroke="#4A4A4A" stroke-width="2.07683" stroke-linecap="round" stroke-linejoin="round"/>
<path d="M28.9261 18.4643C27.9096 19.2708 24.3673 20.7834 18.0595 18.4643C17.4124 18.2264 16.6665 18.0063 15.9902 17.8408" stroke="#4A4A4A" stroke-width="2.07683" stroke-linecap="round" stroke-linejoin="round"/>
<path d="M28.9285 12.3112C27.912 13.1177 24.3697 14.6303 18.0619 12.3112C17.4189 12.0748 16.6706 11.8583 15.9941 11.6943" stroke="#4A4A4A" stroke-width="2.07683" stroke-linecap="round" stroke-linejoin="round"/>
<path d="M10.1543 19.5417L10.1543 10.1055" stroke="#4A4A4A" stroke-width="2.07683" stroke-linecap="round" stroke-linejoin="round"/>
<path d="M7.95508 11.647L10.1526 10.1055L12.3501 11.647" stroke="#4A4A4A" stroke-width="2.07683" stroke-linecap="round" stroke-linejoin="round"/>
<path d="M12.3516 18.0005L10.1541 19.542L7.95658 18.0005" stroke="#4A4A4A" stroke-width="2.07683" stroke-linecap="round" stroke-linejoin="round"/>
</svg>
