<svg width="37" height="36" viewBox="0 0 37 36" fill="none" xmlns="http://www.w3.org/2000/svg">
<path d="M16.2078 14.9413H23.4982C24.3269 14.9413 25.1216 14.6121 25.7075 14.0262C26.2935 13.4402 26.6227 12.6455 26.6227 11.8168C26.6227 10.9882 26.2935 10.1935 25.7075 9.60751C25.1216 9.02157 24.3269 8.69238 23.4982 8.69238C22.9503 8.69465 22.4123 8.83813 21.936 9.10898C21.8166 9.17702 21.7119 9.26799 21.6279 9.37667C21.5439 9.48535 21.4822 9.60957 21.4464 9.7422C21.4105 9.87482 21.4013 10.0132 21.4192 10.1494C21.4371 10.2856 21.4818 10.4169 21.5506 10.5358C21.6195 10.6543 21.7112 10.758 21.8202 10.841C21.9293 10.924 22.0537 10.9846 22.1862 11.0195C22.3188 11.0543 22.4569 11.0626 22.5927 11.044C22.7285 11.0253 22.8592 10.98 22.9775 10.9107C23.1377 10.8245 23.3163 10.7781 23.4982 10.7754C23.7744 10.7754 24.0393 10.8851 24.2347 11.0804C24.43 11.2757 24.5397 11.5406 24.5397 11.8168C24.5397 12.0931 24.43 12.358 24.2347 12.5533C24.0393 12.7486 23.7744 12.8583 23.4982 12.8583H16.2078C15.9316 12.8583 15.6667 12.968 15.4714 13.1634C15.2761 13.3587 15.1663 13.6236 15.1663 13.8998C15.1663 14.176 15.2761 14.4409 15.4714 14.6362C15.6667 14.8316 15.9316 14.9413 16.2078 14.9413ZM6.83446 19.1072H19.3323C19.6085 19.1072 19.8734 18.9975 20.0687 18.8022C20.264 18.6069 20.3738 18.342 20.3738 18.0657C20.3738 17.7895 20.264 17.5246 20.0687 17.3293C19.8734 17.134 19.6085 17.0243 19.3323 17.0243H6.83446C6.55824 17.0243 6.29333 17.134 6.09801 17.3293C5.9027 17.5246 5.79297 17.7895 5.79297 18.0657C5.79297 18.342 5.9027 18.6069 6.09801 18.8022C6.29333 18.9975 6.55824 19.1072 6.83446 19.1072ZM27.6642 17.0243H23.4982C23.222 17.0243 22.9571 17.134 22.7618 17.3293C22.5665 17.5246 22.4567 17.7895 22.4567 18.0657C22.4567 18.342 22.5665 18.6069 22.7618 18.8022C22.9571 18.9975 23.222 19.1072 23.4982 19.1072H27.6642C27.9404 19.1072 28.2053 19.217 28.4006 19.4123C28.5959 19.6076 28.7056 19.8725 28.7056 20.1487C28.7056 20.4249 28.5959 20.6898 28.4006 20.8852C28.2053 21.0805 27.9404 21.1902 27.6642 21.1902C27.3879 21.1902 27.123 21.2999 26.9277 21.4952C26.7324 21.6906 26.6227 21.9555 26.6227 22.2317C26.6227 22.5079 26.7324 22.7728 26.9277 22.9681C27.123 23.1634 27.3879 23.2732 27.6642 23.2732C28.4928 23.2732 29.2875 22.944 29.8735 22.358C30.4594 21.7721 30.7886 20.9774 30.7886 20.1487C30.7886 19.3201 30.4594 18.5253 29.8735 17.9394C29.2875 17.3534 28.4928 17.0243 27.6642 17.0243ZM21.4152 21.1902H17.2493C16.9731 21.1902 16.7082 21.2999 16.5129 21.4952C16.3176 21.6906 16.2078 21.9555 16.2078 22.2317C16.2078 22.5079 16.3176 22.7728 16.5129 22.9681C16.7082 23.1634 16.9731 23.2732 17.2493 23.2732H21.4152C21.6915 23.2732 21.9564 23.3829 22.1517 23.5782C22.347 23.7735 22.4567 24.0384 22.4567 24.3147C22.4567 24.5909 22.347 24.8558 22.1517 25.0511C21.9564 25.2464 21.6915 25.3561 21.4152 25.3561C21.2333 25.3534 21.0547 25.307 20.8945 25.2207C20.776 25.1454 20.6434 25.0948 20.5048 25.072C20.3662 25.0492 20.2244 25.0547 20.088 25.0881C19.9516 25.1215 19.8233 25.1822 19.7109 25.2665C19.5985 25.3507 19.5044 25.4569 19.4341 25.5785C19.3638 25.7001 19.3188 25.8346 19.3019 25.9741C19.2849 26.1135 19.2964 26.2549 19.3355 26.3899C19.3747 26.5248 19.4407 26.6503 19.5296 26.7591C19.6185 26.8678 19.7286 26.9574 19.853 27.0225C20.3293 27.2934 20.8673 27.4368 21.4152 27.4391C22.2439 27.4391 23.0386 27.1099 23.6246 26.524C24.2105 25.938 24.5397 25.1433 24.5397 24.3147C24.5397 23.486 24.2105 22.6913 23.6246 22.1053C23.0386 21.5194 22.2439 21.1902 21.4152 21.1902ZM13.0834 21.1902H12.0419C11.7657 21.1902 11.5008 21.2999 11.3054 21.4952C11.1101 21.6906 11.0004 21.9555 11.0004 22.2317C11.0004 22.5079 11.1101 22.7728 11.3054 22.9681C11.5008 23.1634 11.7657 23.2732 12.0419 23.2732H13.0834C13.3596 23.2732 13.6245 23.1634 13.8198 22.9681C14.0151 22.7728 14.1249 22.5079 14.1249 22.2317C14.1249 21.9555 14.0151 21.6906 13.8198 21.4952C13.6245 21.2999 13.3596 21.1902 13.0834 21.1902Z" fill="#4A4A4A"/>
<path d="M11.9146 14.9413H9.83167C9.55545 14.9413 9.29055 14.8316 9.09523 14.6362C8.89992 14.4409 8.79019 14.176 8.79019 13.8998C8.79019 13.6236 8.89992 13.3587 9.09523 13.1634C9.29055 12.968 9.55545 12.8583 9.83167 12.8583H11.9146C12.1909 12.8583 12.4558 12.968 12.6511 13.1634C12.8464 13.3587 12.9561 13.6236 12.9561 13.8998C12.9561 14.176 12.8464 14.4409 12.6511 14.6362C12.4558 14.8316 12.1909 14.9413 11.9146 14.9413Z" fill="#4A4A4A"/>
<rect x="1.04676" y="0.823129" width="34.486" height="34.486" rx="5.57125" stroke="#4A4A4A" stroke-width="1.23805"/>
</svg>
