<svg width="26" height="26" viewBox="0 0 26 26" fill="none" xmlns="http://www.w3.org/2000/svg">
<rect x="0.199219" y="0.518555" width="25.2773" height="25.2773" rx="5.93132" fill="#939CF9"/>
<path d="M8.05469 9.71777V16.5929" stroke="white" stroke-width="1.44903" stroke-linecap="round" stroke-linejoin="round"/>
<path d="M8.05469 9.71777H11.8243C12.354 9.71777 12.8619 9.90267 13.2365 10.2318C13.611 10.5609 13.8214 11.0073 13.8214 11.4727V11.4727C13.8214 11.7032 13.7697 11.9314 13.6694 12.1443C13.569 12.3572 13.4219 12.5507 13.2365 12.7137C13.051 12.8766 12.8309 13.0059 12.5886 13.0941C12.3463 13.1823 12.0866 13.2277 11.8243 13.2277H8.05469V9.71777Z" stroke="white" stroke-width="1.44903" stroke-linecap="round" stroke-linejoin="round"/>
<circle cx="15.0705" cy="17.3108" r="2.21221" stroke="white" stroke-width="1.2049"/>
<path d="M14.6494 16.8906L15.4887 17.7299" stroke="white" stroke-width="1.00408" stroke-linecap="round"/>
<circle cx="17.8851" cy="15.0121" r="1.34519" stroke="white" stroke-width="1.2049"/>
</svg>
