<svg width="73" height="77" viewBox="0 0 73 77" fill="none" xmlns="http://www.w3.org/2000/svg">
<path d="M59.7543 15.7492C57.5672 10.7236 53.7927 6.5538 49.009 3.87869C44.2254 1.20358 38.6966 0.170751 33.2698 0.938463C27.843 1.70618 22.8176 4.23208 18.9637 8.12912C15.1098 12.0262 12.64 17.0793 11.9327 22.5143C8.80933 23.2695 6.03077 25.0534 4.04404 27.579C2.05732 30.1046 0.977942 33.2251 0.979563 36.4384C0.973172 38.4659 1.39745 40.4716 2.22433 42.3229C3.0512 44.1741 4.26182 45.8286 5.77604 47.1768C6.12452 47.5116 6.53717 47.7723 6.98911 47.9432C7.44105 48.1142 7.92293 48.1919 8.4057 48.1716C8.88847 48.1514 9.36215 48.0336 9.79817 47.8253C10.2342 47.6171 10.6235 47.3227 10.9428 46.96C11.262 46.5973 11.5044 46.1736 11.6555 45.7147C11.8067 45.2557 11.8633 44.7709 11.822 44.2895C11.7807 43.808 11.6424 43.34 11.4153 42.9134C11.1883 42.4869 10.8772 42.1107 10.5009 41.8076C9.75033 41.1303 9.15172 40.3016 8.74453 39.3761C8.33734 38.4507 8.13079 37.4495 8.13848 36.4384C8.13848 34.5398 8.89273 32.7189 10.2353 31.3763C11.5778 30.0338 13.3987 29.2795 15.2974 29.2795C16.2467 29.2795 17.1572 28.9024 17.8285 28.2311C18.4997 27.5598 18.8769 26.6494 18.8769 25.7001C18.886 21.4666 20.3956 17.3734 23.1374 14.1477C25.8792 10.922 29.6757 8.77262 33.8524 8.08151C38.0292 7.39039 42.3156 8.20225 45.9504 10.3728C49.5851 12.5434 52.3327 15.9322 53.705 19.9371C53.9096 20.5522 54.2774 21.1002 54.7691 21.5226C55.2609 21.945 55.8581 22.2259 56.497 22.3354C58.9817 22.764 61.2364 24.0533 62.866 25.9774C64.4956 27.9014 65.3961 30.3376 65.4099 32.859C65.4646 35.4945 64.518 38.0527 62.7611 40.0179C62.1896 40.7295 61.9115 41.6326 61.9837 42.5424C62.056 43.4522 62.473 44.3 63.1495 44.9126C63.8261 45.5252 64.7111 45.8562 65.6236 45.8379C66.5361 45.8197 67.4071 45.4535 68.0587 44.8144C70.0302 42.5613 71.4051 39.8497 72.0574 36.9277C72.7097 34.0057 72.6185 30.9668 71.7923 28.0891C70.966 25.2115 69.4311 22.5871 67.328 20.4563C65.2249 18.3254 62.6209 16.7562 59.7543 15.8923V15.7492Z" fill="#E9EBFE"/>
<path d="M22.9071 39.8228C23.7662 39.4201 24.7501 39.3749 25.6425 39.6973C26.5347 40.0204 27.262 40.6845 27.6647 41.5436C28.0674 42.4027 28.1126 43.3866 27.7902 44.279L23.8528 55.0174C23.6027 55.7092 23.1455 56.3071 22.5434 56.7299C21.9414 57.1526 21.2237 57.3795 20.4881 57.3798C19.9134 57.3796 19.3473 57.241 18.8375 56.9758C18.3277 56.7105 17.8893 56.3265 17.5593 55.856C17.2292 55.3856 17.0174 54.8426 16.9415 54.2729C16.8656 53.7033 16.928 53.1238 17.1234 52.5834L21.0608 41.845C21.3839 40.9528 22.048 40.2255 22.9071 39.8228Z" fill="#C6E3FF"/>
<path d="M37.225 39.8228C38.0841 39.4201 39.068 39.3749 39.9604 39.6973C40.8525 40.0204 41.5798 40.6845 41.9826 41.5436C42.3853 42.4027 42.4304 43.3866 42.108 44.279L38.1706 55.0174C37.9205 55.7092 37.4633 56.3071 36.8613 56.7299C36.2592 57.1526 35.5416 57.3795 34.8059 57.3798C34.2313 57.3796 33.6651 57.241 33.1553 56.9758C32.6456 56.7105 32.2071 56.3265 31.8771 55.856C31.5471 55.3856 31.3352 54.8426 31.2593 54.2729C31.1835 53.7033 31.2459 53.1238 31.4412 52.5834L35.3786 41.845C35.7017 40.9528 36.3658 40.2255 37.225 39.8228Z" fill="#C6E3FF"/>
<path d="M51.5428 39.8228C52.4019 39.4201 53.3858 39.3749 54.2782 39.6973C55.1703 40.0204 55.8977 40.6845 56.3004 41.5436C56.7031 42.4027 56.7483 43.3866 56.4259 44.279L52.4885 55.0174C52.2384 55.7092 51.7812 56.3071 51.1791 56.7299C50.5771 57.1526 49.8594 57.3795 49.1238 57.3798C48.5491 57.3796 47.983 57.241 47.4732 56.9758C46.9634 56.7105 46.525 56.3265 46.195 55.856C45.8649 55.3856 45.653 54.8426 45.5772 54.2729C45.5013 53.7033 45.5637 53.1238 45.7591 52.5834L49.6965 41.845C50.0196 40.9528 50.6837 40.2255 51.5428 39.8228Z" fill="#C6E3FF"/>
<path d="M39.4969 62.1031C40.3561 61.7003 41.3399 61.6552 42.2323 61.9776C43.1245 62.3007 43.8518 62.9648 44.2545 63.8239C44.6573 64.683 44.7024 65.6669 44.38 66.5593L41.767 73.7182C41.5169 74.41 41.0597 75.008 40.4577 75.4307C39.8556 75.8534 39.1379 76.0804 38.4023 76.0807C37.9873 76.0802 37.5754 76.0075 37.1853 75.8659C36.2932 75.5428 35.5658 74.8787 35.1631 74.0196C34.7604 73.1605 34.7152 72.1766 35.0376 71.2842L37.6506 64.1253C37.9737 63.2331 38.6378 62.5058 39.4969 62.1031Z" fill="#C6E3FF"/>
<path d="M25.1791 62.1031C26.0382 61.7003 27.0221 61.6552 27.9145 61.9776C28.8066 62.3007 29.534 62.9648 29.9367 63.8239C30.3394 64.683 30.3845 65.6669 30.0622 66.5593L27.4492 73.7182C27.199 74.41 26.7419 75.008 26.1398 75.4307C25.5378 75.8534 24.8201 76.0804 24.0845 76.0807C23.6694 76.0802 23.2576 76.0075 22.8674 75.8659C21.9753 75.5428 21.248 74.8787 20.8452 74.0196C20.4425 73.1605 20.3974 72.1766 20.7198 71.2842L23.3328 64.1253C23.6559 63.2331 24.32 62.5058 25.1791 62.1031Z" fill="#C6E3FF"/>
<path d="M53.8148 62.1031C54.6739 61.7003 55.6578 61.6552 56.5502 61.9776C57.4423 62.3007 58.1697 62.9648 58.5724 63.8239C58.9751 64.683 59.0202 65.6669 58.6978 66.5593L56.0848 73.7182C55.8347 74.41 55.3775 75.008 54.7755 75.4307C54.1734 75.8534 53.4558 76.0804 52.7201 76.0807C52.3051 76.0802 51.8933 76.0075 51.5031 75.8659C50.611 75.5428 49.8836 74.8787 49.4809 74.0196C49.0782 73.1605 49.0331 72.1766 49.3555 71.2842L51.9685 64.1253C52.2915 63.2331 52.9556 62.5058 53.8148 62.1031Z" fill="#C6E3FF"/>
</svg>
