<svg width="26" height="26" viewBox="0 0 26 26" fill="none" xmlns="http://www.w3.org/2000/svg">
<rect x="0.476562" y="0.240234" width="25.2773" height="25.2773" rx="5.93132" fill="#939CF9"/>
<path d="M16.1881 12.654C16.4445 12.6572 16.699 12.609 16.9365 12.5122C17.1739 12.4155 17.3896 12.2721 17.5708 12.0907L19.3824 10.2791C19.5016 10.1592 19.5685 9.99696 19.5685 9.82785C19.5685 9.65874 19.5016 9.4965 19.3824 9.37656C19.3229 9.31657 19.2521 9.26894 19.174 9.23644C19.096 9.20395 19.0124 9.18721 18.9279 9.18721C18.8434 9.18721 18.7597 9.20395 18.6817 9.23644C18.6037 9.26894 18.5329 9.31657 18.4734 9.37656L16.6426 11.1817C16.5831 11.2417 16.5123 11.2893 16.4343 11.3218C16.3563 11.3543 16.2726 11.3711 16.1881 11.3711C16.1036 11.3711 16.02 11.3543 15.942 11.3218C15.864 11.2893 15.7932 11.2417 15.7336 11.1817V11.1817L17.9997 8.92207C18.0594 8.86239 18.1067 8.79153 18.139 8.71355C18.1713 8.63557 18.1879 8.55199 18.1879 8.46758C18.1879 8.38318 18.1713 8.2996 18.139 8.22162C18.1067 8.14364 18.0594 8.07278 17.9997 8.0131C17.94 7.95341 17.8691 7.90607 17.7912 7.87377C17.7132 7.84146 17.6296 7.82484 17.5452 7.82484C17.4608 7.82484 17.3772 7.84146 17.2992 7.87377C17.2213 7.90607 17.1504 7.95341 17.0907 8.0131L14.8311 10.2791C14.7118 10.1592 14.6449 9.99696 14.6449 9.82785C14.6449 9.65874 14.7118 9.4965 14.8311 9.37656L16.6426 7.56501C16.7023 7.50532 16.7497 7.43447 16.782 7.35649C16.8143 7.2785 16.8309 7.19492 16.8309 7.11052C16.8309 7.02611 16.8143 6.94253 16.782 6.86455C16.7497 6.78657 16.7023 6.71571 16.6426 6.65603C16.5829 6.59634 16.5121 6.549 16.4341 6.5167C16.3561 6.4844 16.2725 6.46777 16.1881 6.46777C16.1037 6.46777 16.0201 6.4844 15.9422 6.5167C15.8642 6.549 15.7933 6.59634 15.7336 6.65603L13.9221 8.46758C13.5625 8.82766 13.3605 9.31575 13.3605 9.82465C13.3605 10.3336 13.5625 10.8216 13.9221 11.1817V11.1817L13.0899 12.0075L7.79609 6.69444L7.73207 6.65603C7.69935 6.62748 7.6627 6.60377 7.62325 6.58562L7.50803 6.54081L7.43121 6.4896H7.38641H7.25838C7.22022 6.48349 7.18132 6.48349 7.14316 6.4896C7.10441 6.5037 7.06779 6.52309 7.03434 6.54721L6.93192 6.61122H6.88711L6.8487 6.67523C6.82161 6.70903 6.79802 6.74549 6.77829 6.78405C6.75954 6.82309 6.74454 6.86381 6.73348 6.90568C6.73348 6.90568 6.73348 6.95049 6.73348 6.97609C6.57814 8.05881 6.67718 9.16282 7.02274 10.2006C7.36829 11.2384 7.95087 12.1814 8.72427 12.9549L10.4142 14.6384L6.95112 18.0951C6.89112 18.1546 6.8435 18.2254 6.811 18.3034C6.7785 18.3814 6.76177 18.4651 6.76177 18.5496C6.76177 18.6341 6.7785 18.7177 6.811 18.7957C6.8435 18.8737 6.89112 18.9445 6.95112 19.0041C7.01093 19.0634 7.08187 19.1103 7.15986 19.1422C7.23785 19.174 7.32136 19.1902 7.40561 19.1897C7.48985 19.1902 7.57337 19.174 7.65136 19.1422C7.72935 19.1103 7.80029 19.0634 7.8601 19.0041L11.7457 15.1761L13.5572 13.3645L14.8375 12.0843C15.1946 12.4453 15.6803 12.6502 16.1881 12.654V12.654ZM11.2912 13.819L9.60764 12.1291C8.68487 11.1937 8.10709 9.97269 7.96892 8.66602L12.2002 12.8909L11.2912 13.819ZM15.2856 14.1839C15.165 14.0625 15.0012 13.994 14.8301 13.9934C14.6591 13.9928 14.4948 14.0602 14.3734 14.1807C14.252 14.3012 14.1835 14.4651 14.1829 14.6361C14.1823 14.8072 14.2496 14.9715 14.3702 15.0929L18.403 19.1257C18.5252 19.2369 18.6858 19.2966 18.8511 19.2921C18.9353 19.2926 19.0188 19.2764 19.0968 19.2446C19.1748 19.2127 19.2457 19.1658 19.3055 19.1065C19.3655 19.047 19.4132 18.9762 19.4457 18.8982C19.4782 18.8202 19.4949 18.7365 19.4949 18.652C19.4949 18.5675 19.4782 18.4838 19.4457 18.4058C19.4132 18.3278 19.3655 18.257 19.3055 18.1975L15.2856 14.1839Z" fill="white"/>
</svg>
