<svg width="18" height="18" viewBox="0 0 18 18" fill="none" xmlns="http://www.w3.org/2000/svg">
<path d="M17.1901 16.1305L13.9867 12.953C15.2301 11.4026 15.8323 9.43465 15.6694 7.45388C15.5065 5.47311 14.5908 3.63004 13.1107 2.30366C11.6306 0.977266 9.69858 0.268371 7.71187 0.322735C5.72515 0.377099 3.83477 1.19059 2.42943 2.59593C1.02408 4.00128 0.210595 5.89166 0.156231 7.87837C0.101867 9.86509 0.810762 11.7971 2.13715 13.2772C3.46354 14.7573 5.30661 15.673 7.28737 15.8359C9.26814 15.9988 11.2361 15.3966 12.7865 14.1532L15.964 17.3307C16.0443 17.4116 16.1398 17.4759 16.245 17.5197C16.3502 17.5635 16.4631 17.5861 16.577 17.5861C16.691 17.5861 16.8039 17.5635 16.9091 17.5197C17.0143 17.4759 17.1098 17.4116 17.1901 17.3307C17.3457 17.1697 17.4327 16.9545 17.4327 16.7306C17.4327 16.5067 17.3457 16.2915 17.1901 16.1305ZM7.94248 14.1532C6.74705 14.1532 5.57847 13.7987 4.5845 13.1346C3.59054 12.4704 2.81584 11.5264 2.35837 10.422C1.9009 9.31756 1.7812 8.10228 2.01442 6.92982C2.24763 5.75736 2.82329 4.68039 3.66859 3.83509C4.51388 2.98979 5.59086 2.41414 6.76331 2.18092C7.93577 1.94771 9.15106 2.0674 10.2555 2.52487C11.3599 2.98234 12.3039 3.75704 12.968 4.75101C13.6322 5.74497 13.9867 6.91355 13.9867 8.10898C13.9867 9.712 13.3499 11.2494 12.2164 12.3829C11.0829 13.5164 9.5455 14.1532 7.94248 14.1532Z" fill="#D0D3ED"/>
</svg>
