<svg width="50" height="51" viewBox="0 0 50 51" fill="none" xmlns="http://www.w3.org/2000/svg">
<path d="M42.4717 5.87598H37.5401V3.41016C37.5401 2.75618 37.2803 2.12899 36.8178 1.66656C36.3554 1.20413 35.7282 0.944336 35.0742 0.944336C34.4203 0.944336 33.7931 1.20413 33.3306 1.66656C32.8682 2.12899 32.6084 2.75618 32.6084 3.41016V5.87598H17.8135V3.41016C17.8135 2.75618 17.5537 2.12899 17.0913 1.66656C16.6288 1.20413 16.0016 0.944336 15.3477 0.944336C14.6937 0.944336 14.0665 1.20413 13.6041 1.66656C13.1416 2.12899 12.8818 2.75618 12.8818 3.41016V5.87598H7.9502C5.98827 5.87598 4.1067 6.65535 2.7194 8.04265C1.33211 9.42994 0.552734 11.3115 0.552734 13.2734V42.8633C0.552734 44.8252 1.33211 46.7068 2.7194 48.0941C4.1067 49.4814 5.98827 50.2608 7.9502 50.2608H42.4717C44.4336 50.2608 46.3152 49.4814 47.7025 48.0941C49.0898 46.7068 49.8692 44.8252 49.8692 42.8633V13.2734C49.8692 11.3115 49.0898 9.42994 47.7025 8.04265C46.3152 6.65535 44.4336 5.87598 42.4717 5.87598ZM44.9375 42.8633C44.9375 43.5173 44.6777 44.1445 44.2153 44.6069C43.7529 45.0693 43.1257 45.3291 42.4717 45.3291H7.9502C7.29622 45.3291 6.66903 45.0693 6.2066 44.6069C5.74417 44.1445 5.48438 43.5173 5.48438 42.8633V25.6026H44.9375V42.8633ZM44.9375 20.6709H5.48438V13.2734C5.48438 12.6195 5.74417 11.9923 6.2066 11.5298C6.66903 11.0674 7.29622 10.8076 7.9502 10.8076H12.8818V13.2734C12.8818 13.9274 13.1416 14.5546 13.6041 15.017C14.0665 15.4795 14.6937 15.7393 15.3477 15.7393C16.0016 15.7393 16.6288 15.4795 17.0913 15.017C17.5537 14.5546 17.8135 13.9274 17.8135 13.2734V10.8076H32.6084V13.2734C32.6084 13.9274 32.8682 14.5546 33.3306 15.017C33.7931 15.4795 34.4203 15.7393 35.0742 15.7393C35.7282 15.7393 36.3554 15.4795 36.8178 15.017C37.2803 14.5546 37.5401 13.9274 37.5401 13.2734V10.8076H42.4717C43.1257 10.8076 43.7529 11.0674 44.2153 11.5298C44.6777 11.9923 44.9375 12.6195 44.9375 13.2734V20.6709Z" fill="#6E7BF7"/>
</svg>
