<svg width="27" height="26" viewBox="0 0 27 26" fill="none" xmlns="http://www.w3.org/2000/svg">
<rect x="0.753906" y="0.240234" width="25.2773" height="25.2773" rx="5.93132" fill="#939CF9"/>
<path d="M13.3919 6.65039C11.8772 6.65039 10.6494 7.87822 10.6494 9.39283H16.1343C16.1343 7.87822 14.9065 6.65039 13.3919 6.65039Z" stroke="white" stroke-width="1.81128" stroke-linecap="round" stroke-linejoin="round"/>
<path d="M10.031 12.497C10.2072 12.3558 10.4324 12.2905 10.6568 12.3153C10.8812 12.3402 11.0866 12.4531 11.2277 12.6294C11.3689 12.8057 11.4342 13.0308 11.4094 13.2552L11.2221 14.9477C11.1973 15.1721 11.0843 15.3775 10.908 15.5186C10.7318 15.6598 10.5066 15.7251 10.2822 15.7003C10.0578 15.6754 9.8524 15.5625 9.71126 15.3862C9.57012 15.2099 9.50478 14.9848 9.52962 14.7604L9.7169 13.0679C9.74174 12.8435 9.85472 12.6381 10.031 12.497Z" fill="white"/>
<path d="M9.54563 16.8944C9.72189 16.7533 9.947 16.6879 10.1714 16.7128C10.3959 16.7376 10.6013 16.8506 10.7424 17.0269C10.8835 17.2031 10.9489 17.4282 10.924 17.6527L10.7367 19.3451C10.7119 19.5696 10.5989 19.775 10.4227 19.9161C10.2464 20.0572 10.0213 20.1226 9.79686 20.0977C9.57242 20.0729 9.36704 19.9599 9.22591 19.7837C9.08477 19.6074 9.01943 19.3823 9.04426 19.1579L9.23155 17.4654C9.25639 17.2409 9.36936 17.0356 9.54563 16.8944Z" fill="white"/>
<path d="M16.7571 12.497C16.5808 12.3558 16.3557 12.2905 16.1313 12.3153C15.9069 12.3402 15.7015 12.4531 15.5603 12.6294C15.4192 12.8057 15.3539 13.0308 15.3787 13.2552L15.566 14.9477C15.5908 15.1721 15.7038 15.3775 15.8801 15.5186C16.0563 15.6598 16.2814 15.7251 16.5059 15.7003C16.7303 15.6754 16.9357 15.5625 17.0768 15.3862C17.218 15.2099 17.2833 14.9848 17.2585 14.7604L17.0712 13.0679C17.0463 12.8435 16.9334 12.6381 16.7571 12.497Z" fill="white"/>
<path d="M17.2444 16.8944C17.0682 16.7533 16.843 16.6879 16.6186 16.7128C16.3942 16.7376 16.1888 16.8506 16.0476 17.0269C15.9065 17.2031 15.8412 17.4282 15.866 17.6527L16.0533 19.3451C16.0781 19.5696 16.1911 19.775 16.3674 19.9161C16.5436 20.0572 16.7687 20.1226 16.9932 20.0977C17.2176 20.0729 17.423 19.9599 17.5641 19.7837C17.7053 19.6074 17.7706 19.3823 17.7458 19.1579L17.5585 17.4654C17.5337 17.2409 17.4207 17.0356 17.2444 16.8944Z" fill="white"/>
<path d="M12.7904 12.5414C12.9501 12.3817 13.1666 12.292 13.3924 12.292C13.6182 12.292 13.8348 12.3817 13.9945 12.5414C14.1541 12.701 14.2438 12.9176 14.2438 13.1434V14.8462C14.2438 15.072 14.1541 15.2886 13.9945 15.4482C13.8348 15.6079 13.6182 15.6976 13.3924 15.6976C13.1666 15.6976 12.9501 15.6079 12.7904 15.4482C12.6307 15.2886 12.541 15.072 12.541 14.8462V13.1434C12.541 12.9176 12.6307 12.701 12.7904 12.5414Z" fill="white"/>
<path d="M12.7904 16.9642C12.9501 16.8045 13.1666 16.7148 13.3924 16.7148C13.6182 16.7148 13.8348 16.8045 13.9945 16.9642C14.1541 17.1239 14.2438 17.3404 14.2438 17.5662V19.2691C14.2438 19.4949 14.1541 19.7114 13.9945 19.8711C13.8348 20.0308 13.6182 20.1205 13.3924 20.1205C13.1666 20.1205 12.9501 20.0308 12.7904 19.8711C12.6307 19.7114 12.541 19.4949 12.541 19.2691V17.5662C12.541 17.3404 12.6307 17.1239 12.7904 16.9642Z" fill="white"/>
</svg>
