<svg width="18" height="18" viewBox="0 0 18 18" fill="none" xmlns="http://www.w3.org/2000/svg">
<path d="M3.15447 8.68369C3.15447 8.4599 3.06557 8.24527 2.90733 8.08703C2.74908 7.92878 2.53446 7.83988 2.31066 7.83988H1.46686C1.24306 7.83988 1.02844 7.92878 0.870193 8.08703C0.711948 8.24527 0.623047 8.4599 0.623047 8.68369C0.623047 8.90748 0.711948 9.12211 0.870193 9.28035C1.02844 9.4386 1.24306 9.5275 1.46686 9.5275H2.31066C2.53446 9.5275 2.74908 9.4386 2.90733 9.28035C3.06557 9.12211 3.15447 8.90748 3.15447 8.68369ZM3.69451 12.9027L3.09541 13.5018C2.93825 13.6599 2.85003 13.8738 2.85003 14.0967C2.85003 14.3196 2.93825 14.5335 3.09541 14.6916C3.2535 14.8488 3.46737 14.937 3.69029 14.937C3.91321 14.937 4.12708 14.8488 4.28518 14.6916L4.88428 14.0925C5.02252 13.9311 5.09475 13.7234 5.08655 13.5111C5.07835 13.2987 4.99031 13.0973 4.84003 12.947C4.68976 12.7967 4.48831 12.7087 4.27594 12.7005C4.06357 12.6923 3.85593 12.7645 3.69451 12.9027ZM9.06113 2.77703C9.28493 2.77703 9.49955 2.68813 9.6578 2.52989C9.81604 2.37164 9.90494 2.15701 9.90494 1.93322V1.08941C9.90494 0.865622 9.81604 0.650996 9.6578 0.492751C9.49955 0.334506 9.28493 0.245605 9.06113 0.245605C8.83734 0.245605 8.62272 0.334506 8.46447 0.492751C8.30623 0.650996 8.21732 0.865622 8.21732 1.08941V1.93322C8.21732 2.15701 8.30623 2.37164 8.46447 2.52989C8.62272 2.68813 8.83734 2.77703 9.06113 2.77703ZM13.8371 4.75154C14.0585 4.75061 14.2706 4.66273 14.4278 4.50684L15.0269 3.90774C15.1152 3.83209 15.1869 3.739 15.2376 3.63432C15.2882 3.52963 15.3167 3.4156 15.3212 3.29939C15.3257 3.18319 15.3061 3.0673 15.2637 2.95902C15.2212 2.85074 15.1569 2.7524 15.0747 2.67016C14.9924 2.58793 14.8941 2.52358 14.7858 2.48116C14.6775 2.43874 14.5616 2.41916 14.4454 2.42365C14.3292 2.42813 14.2152 2.4566 14.1105 2.50724C14.0058 2.55789 13.9127 2.62963 13.8371 2.71796L13.2802 3.31707C13.123 3.47517 13.0348 3.68903 13.0348 3.91195C13.0348 4.13488 13.123 4.34874 13.2802 4.50684C13.4289 4.65481 13.6275 4.74205 13.8371 4.75154ZM3.71139 4.50684C3.86855 4.66273 4.08069 4.75061 4.30205 4.75154C4.4131 4.75219 4.52319 4.7309 4.626 4.68891C4.7288 4.64692 4.82231 4.58504 4.90116 4.50684C5.05832 4.34874 5.14653 4.13488 5.14653 3.91195C5.14653 3.68903 5.05832 3.47517 4.90116 3.31707L4.30205 2.71796C4.22393 2.63874 4.13097 2.57567 4.02847 2.53237C3.92598 2.48906 3.81596 2.46637 3.7047 2.46559C3.59343 2.46481 3.4831 2.48594 3.38001 2.5278C3.27691 2.56965 3.18307 2.63141 3.10384 2.70953C3.02461 2.78765 2.96155 2.88061 2.91825 2.9831C2.87494 3.0856 2.85225 3.19562 2.85147 3.30688C2.84989 3.53159 2.93763 3.74772 3.09541 3.90774L3.71139 4.50684ZM16.6554 7.83988H15.8116C15.5878 7.83988 15.3732 7.92878 15.2149 8.08703C15.0567 8.24527 14.9678 8.4599 14.9678 8.68369C14.9678 8.90748 15.0567 9.12211 15.2149 9.28035C15.3732 9.4386 15.5878 9.5275 15.8116 9.5275H16.6554C16.8792 9.5275 17.0938 9.4386 17.2521 9.28035C17.4103 9.12211 17.4992 8.90748 17.4992 8.68369C17.4992 8.4599 17.4103 8.24527 17.2521 8.08703C17.0938 7.92878 16.8792 7.83988 16.6554 7.83988ZM14.4278 12.9027C14.2674 12.8136 14.0824 12.7791 13.9008 12.8045C13.7191 12.8299 13.5506 12.9138 13.4209 13.0435C13.2912 13.1732 13.2073 13.3416 13.1819 13.5233C13.1565 13.705 13.191 13.89 13.2802 14.0503L13.8793 14.6494C14.0374 14.8066 14.2512 14.8948 14.4742 14.8948C14.6971 14.8948 14.911 14.8066 15.0691 14.6494C15.2262 14.4913 15.3144 14.2775 15.3144 14.0545C15.3144 13.8316 15.2262 13.6177 15.0691 13.4596L14.4278 12.9027ZM9.06113 4.04274C8.14324 4.04274 7.24596 4.31493 6.48276 4.82488C5.71956 5.33484 5.12472 6.05966 4.77346 6.90768C4.42219 7.7557 4.33029 8.68884 4.50936 9.5891C4.68843 10.4894 5.13044 11.3163 5.77949 11.9653C6.42854 12.6144 7.25547 13.0564 8.15573 13.2355C9.05598 13.4145 9.98913 13.3226 10.8371 12.9714C11.6852 12.6201 12.41 12.0253 12.9199 11.2621C13.4299 10.4989 13.7021 9.60158 13.7021 8.68369C13.6999 7.45352 13.2102 6.27437 12.3403 5.40451C11.4705 4.53465 10.2913 4.04498 9.06113 4.04274ZM9.06113 11.637C8.47702 11.637 7.90602 11.4638 7.42035 11.1393C6.93468 10.8148 6.55614 10.3535 6.33261 9.81388C6.10908 9.27423 6.0506 8.68042 6.16455 8.10753C6.27851 7.53464 6.55978 7.0084 6.97281 6.59537C7.38584 6.18234 7.91208 5.90106 8.48497 5.78711C9.05786 5.67315 9.65167 5.73164 10.1913 5.95517C10.731 6.1787 11.1922 6.55724 11.5167 7.04291C11.8413 7.52858 12.0145 8.09958 12.0145 8.68369C12.0145 9.46696 11.7033 10.2182 11.1495 10.772C10.5956 11.3259 9.84441 11.637 9.06113 11.637ZM9.06113 14.5904C8.83734 14.5904 8.62272 14.6793 8.46447 14.8375C8.30623 14.9957 8.21732 15.2104 8.21732 15.4342V16.278C8.21732 16.5018 8.30623 16.7164 8.46447 16.8746C8.62272 17.0329 8.83734 17.1218 9.06113 17.1218C9.28493 17.1218 9.49955 17.0329 9.6578 16.8746C9.81604 16.7164 9.90494 16.5018 9.90494 16.278V15.4342C9.90494 15.2104 9.81604 14.9957 9.6578 14.8375C9.49955 14.6793 9.28493 14.5904 9.06113 14.5904Z" fill="#FFB627"/>
</svg>
