<svg width="81" height="82" viewBox="0 0 81 82" fill="none" xmlns="http://www.w3.org/2000/svg">
<path fill-rule="evenodd" clip-rule="evenodd" d="M75.1815 43.2814C74.2283 43.2322 73.5 42.4193 73.5 41.4648C73.5 40.5103 74.2283 39.6975 75.1815 39.6483L78.8337 39.46C80.0001 39.3998 81 40.2969 81 41.4648C81 42.6328 80.0001 43.5299 78.8337 43.4697L75.1815 43.2814ZM69.0825 24.9601C69.5605 25.7862 70.5985 26.1281 71.4484 25.6942L74.7001 24.034C75.7434 23.5014 76.1606 22.2176 75.5739 21.2036C74.9871 20.1897 73.6698 19.9172 72.6879 20.5561L69.6278 22.5474C68.828 23.0679 68.6045 24.1341 69.0825 24.9601ZM57.0047 12.8824C57.8307 13.3604 58.8969 13.1369 59.4174 12.337L61.4087 9.27693C62.0476 8.29506 61.7751 6.97769 60.7612 6.39094C59.7473 5.8042 58.4635 6.22143 57.9308 7.26477L56.2707 10.5164C55.8367 11.3664 56.1787 12.4044 57.0047 12.8824ZM40.5 8.46484C41.4545 8.46484 42.2674 7.73654 42.3165 6.7833L42.5049 3.13116C42.565 1.96478 41.6679 0.964844 40.5 0.964844C39.3321 0.964844 38.435 1.96478 38.4951 3.13116L38.6835 6.7833C38.7326 7.73653 39.5455 8.46484 40.5 8.46484ZM23.9953 12.8824C24.8213 12.4044 25.1633 11.3664 24.7293 10.5164L23.0692 7.26478C22.5365 6.22143 21.2527 5.8042 20.2388 6.39095C19.2249 6.97769 18.9524 8.29506 19.5913 9.27694L21.5826 12.337C22.1031 13.1369 23.1693 13.3604 23.9953 12.8824ZM11.9175 24.9601C12.3955 24.1341 12.172 23.0679 11.3721 22.5474L8.31209 20.5562C7.33021 19.9172 6.01285 20.1897 5.4261 21.2036C4.83935 22.2176 5.25658 23.5014 6.29993 24.034L9.55156 25.6942C10.4015 26.1281 11.4395 25.7862 11.9175 24.9601ZM5.81846 39.6483C6.77169 39.6975 7.5 40.5103 7.5 41.4648C7.5 42.4193 6.77169 43.2322 5.81845 43.2814L2.16632 43.4697C0.999933 43.5299 0 42.6328 0 41.4648C0 40.2969 0.999933 39.3998 2.16631 39.46L5.81846 39.6483ZM11.9175 57.9695C11.4395 57.1435 10.4015 56.8016 9.55156 57.2355L6.29993 58.8956C5.25659 59.4283 4.83936 60.7121 5.4261 61.726C6.01285 62.74 7.33022 63.0125 8.31209 62.3735L11.3721 60.3823C12.172 59.8618 12.3955 58.7955 11.9175 57.9695ZM23.9953 70.0473C23.1693 69.5693 22.1031 69.7928 21.5826 70.5927L19.5913 73.6527C18.9524 74.6346 19.2249 75.952 20.2388 76.5387C21.2527 77.1255 22.5365 76.7083 23.0692 75.6649L24.7293 72.4133C25.1633 71.5633 24.8213 70.5253 23.9953 70.0473ZM40.5 74.4648C39.5455 74.4648 38.7326 75.1932 38.6835 76.1464L38.4951 79.7985C38.435 80.9649 39.3321 81.9648 40.5 81.9648C41.6679 81.9648 42.565 80.9649 42.5049 79.7985L42.3165 76.1464C42.2674 75.1932 41.4545 74.4648 40.5 74.4648ZM57.0047 70.0473C56.1787 70.5253 55.8367 71.5633 56.2707 72.4133L57.9308 75.6649C58.4635 76.7083 59.7473 77.1255 60.7612 76.5387C61.7751 75.952 62.0476 74.6346 61.4087 73.6527L59.4174 70.5927C58.8969 69.7928 57.8307 69.5693 57.0047 70.0473ZM69.0825 57.9695C68.6045 58.7955 68.828 59.8618 69.6278 60.3823L72.6879 62.3735C73.6698 63.0125 74.9871 62.74 75.5739 61.726C76.1606 60.7121 75.7434 59.4283 74.7001 58.8956L71.4484 57.2355C70.5985 56.8016 69.5605 57.1435 69.0825 57.9695Z" fill="#FFD400"/>
<path d="M68.2515 41.4648C68.2515 56.7907 55.8274 69.2148 40.5015 69.2148C25.1756 69.2148 12.7515 56.7907 12.7515 41.4648C12.7515 26.1389 25.1756 13.7148 40.5015 13.7148C55.8274 13.7148 68.2515 26.1389 68.2515 41.4648Z" fill="#FFD400"/>
</svg>
