<svg width="17" height="13" viewBox="0 0 17 13" fill="none" xmlns="http://www.w3.org/2000/svg">
<path d="M0.816406 11.1503C1.89301 10.5351 4.23762 9.84162 7.7971 11.1503C12.1547 12.7524 14.6017 11.7074 15.304 11.1503" stroke="#6E7BF7" stroke-width="1.4" stroke-linecap="round" stroke-linejoin="round"/>
<path d="M15.3036 6.77791C14.6014 7.33504 12.1543 8.38 7.7967 6.77791C7.34965 6.61354 6.83439 6.46145 6.36719 6.34717" stroke="#6E7BF7" stroke-width="1.4" stroke-linecap="round" stroke-linejoin="round"/>
<path d="M15.3055 2.52674C14.6032 3.08387 12.1562 4.12883 7.79859 2.52674C7.35437 2.36342 6.83742 2.21387 6.37012 2.10059" stroke="#6E7BF7" stroke-width="1.4" stroke-linecap="round" stroke-linejoin="round"/>
<path d="M2.33594 7.52169L2.33594 1.00293" stroke="#6E7BF7" stroke-width="1.4" stroke-linecap="round" stroke-linejoin="round"/>
<path d="M0.816406 2.06782L2.33448 1.00293L3.85255 2.06782" stroke="#6E7BF7" stroke-width="1.4" stroke-linecap="round" stroke-linejoin="round"/>
<path d="M3.85254 6.45562L2.33447 7.52051L0.816394 6.45562" stroke="#6E7BF7" stroke-width="1.4" stroke-linecap="round" stroke-linejoin="round"/>
</svg>
