<svg width="17" height="16" viewBox="0 0 17 16" fill="none" xmlns="http://www.w3.org/2000/svg">
<path d="M1.7373 14.0375C2.8139 13.4223 5.15852 12.7288 8.71799 14.0375C13.0756 15.6396 15.5226 14.5946 16.2249 14.0375" stroke="#6E7BF7" stroke-width="1.4" stroke-linecap="round" stroke-linejoin="round"/>
<path d="M16.2251 9.66504C15.6854 10.0932 14.1149 10.8096 11.4385 10.3909" stroke="#6E7BF7" stroke-width="1.4" stroke-linecap="round" stroke-linejoin="round"/>
<path d="M16.2267 5.41406C15.6887 5.84084 14.1269 6.55388 11.4668 6.14403" stroke="#6E7BF7" stroke-width="1.4" stroke-linecap="round" stroke-linejoin="round"/>
<path d="M8.61871 4.06353L9.12149 3.56627C9.22553 3.46223 9.28398 3.32112 9.28398 3.17398C9.28398 3.02685 9.22553 2.88574 9.12149 2.7817C9.01745 2.67766 8.87635 2.61921 8.72921 2.61921C8.58208 2.61921 8.44097 2.67766 8.33693 2.7817L7.83967 3.28449C7.06535 2.68548 6.11408 2.36049 5.13512 2.36049C4.15616 2.36049 3.20489 2.68548 2.43057 3.28449L1.92779 2.77618C1.82302 2.67214 1.6812 2.61398 1.53355 2.6145C1.3859 2.61501 1.2445 2.67417 1.14046 2.77894C1.03642 2.88371 0.978262 3.02552 0.97878 3.17317C0.979298 3.32083 1.03845 3.46223 1.14322 3.56627L1.65153 4.06905C1.04544 4.84121 0.716567 5.79474 0.717788 6.77636C0.715984 7.48105 0.882693 8.17595 1.20401 8.80312C1.52533 9.43029 1.99195 9.97154 2.56494 10.3817C3.13794 10.7919 3.8007 11.0592 4.49797 11.1612C5.19523 11.2632 5.90679 11.1971 6.57328 10.9682C7.23978 10.7394 7.8419 10.3545 8.32943 9.84565C8.81695 9.33683 9.17576 8.71881 9.37591 8.04315C9.57607 7.36748 9.61178 6.65375 9.48006 5.96148C9.34834 5.26922 9.05301 4.61847 8.61871 4.06353V4.06353ZM5.13788 10.0914C4.48222 10.0914 3.84129 9.89701 3.29613 9.53274C2.75097 9.16848 2.32607 8.65073 2.07516 8.04498C1.82425 7.43923 1.7586 6.77268 1.88651 6.12962C2.01442 5.48656 2.33015 4.89587 2.79377 4.43225C3.25739 3.96863 3.84808 3.6529 4.49114 3.52499C5.13421 3.39708 5.80076 3.46272 6.40651 3.71363C7.01226 3.96454 7.53 4.38945 7.89426 4.93461C8.25853 5.47977 8.45295 6.1207 8.45295 6.77636C8.45295 7.65557 8.10369 8.49878 7.48199 9.12047C6.8603 9.74217 6.01709 10.0914 5.13788 10.0914ZM4.03286 1.80375H6.24291C6.38944 1.80375 6.52998 1.74554 6.63359 1.64193C6.73721 1.53831 6.79542 1.39778 6.79542 1.25124C6.79542 1.10471 6.73721 0.964174 6.63359 0.860557C6.52998 0.756941 6.38944 0.69873 6.24291 0.69873H4.03286C3.88632 0.69873 3.74579 0.756941 3.64217 0.860557C3.53856 0.964174 3.48035 1.10471 3.48035 1.25124C3.48035 1.39778 3.53856 1.53831 3.64217 1.64193C3.74579 1.74554 3.88632 1.80375 4.03286 1.80375V1.80375ZM5.6904 5.11883C5.6904 4.97229 5.63218 4.83176 5.52857 4.72814C5.42495 4.62453 5.28442 4.56631 5.13788 4.56631C4.99135 4.56631 4.85081 4.62453 4.7472 4.72814C4.64358 4.83176 4.58537 4.97229 4.58537 5.11883V6.16307C4.46027 6.27497 4.37209 6.42222 4.3325 6.58533C4.29291 6.74844 4.30378 6.91973 4.36367 7.07652C4.42356 7.23332 4.52965 7.36824 4.6679 7.46342C4.80615 7.5586 4.97004 7.60957 5.13788 7.60957C5.30573 7.60957 5.46962 7.5586 5.60787 7.46342C5.74612 7.36824 5.8522 7.23332 5.9121 7.07652C5.97199 6.91973 5.98286 6.74844 5.94327 6.58533C5.90368 6.42222 5.8155 6.27497 5.6904 6.16307V5.11883Z" fill="#6E7BF7"/>
</svg>
