<svg width="26" height="27" viewBox="0 0 26 27" fill="none" xmlns="http://www.w3.org/2000/svg">
<rect x="0.308594" y="0.87207" width="25.2773" height="25.2773" rx="5.93132" fill="#939CF9"/>
<path d="M17.2503 6.41309H8.64615C8.07566 6.41309 7.52854 6.63971 7.12514 7.04311C6.72174 7.4465 6.49512 7.99363 6.49512 8.56412V17.1682C6.49636 17.612 6.63485 18.0446 6.89158 18.4066C7.14831 18.7685 7.51073 19.0423 7.92914 19.1902V20.0363C7.92914 20.2264 8.00468 20.4088 8.13914 20.5433C8.27361 20.6777 8.45598 20.7533 8.64615 20.7533C8.83631 20.7533 9.01868 20.6777 9.15315 20.5433C9.28761 20.4088 9.36316 20.2264 9.36316 20.0363V19.3193H16.5333V20.0363C16.5333 20.2264 16.6088 20.4088 16.7433 20.5433C16.8777 20.6777 17.0601 20.7533 17.2503 20.7533C17.4404 20.7533 17.6228 20.6777 17.7573 20.5433C17.8917 20.4088 17.9673 20.2264 17.9673 20.0363V19.1902C18.3857 19.0423 18.7481 18.7685 19.0048 18.4066C19.2616 18.0446 19.4 17.612 19.4013 17.1682V8.56412C19.4013 7.99363 19.1747 7.4465 18.7713 7.04311C18.3679 6.63971 17.8208 6.41309 17.2503 6.41309ZM7.92914 10.7151H12.2312V13.5832H7.92914V10.7151ZM17.9673 17.1682C17.9673 17.3584 17.8917 17.5408 17.7573 17.6752C17.6228 17.8097 17.4404 17.8852 17.2503 17.8852H8.64615C8.45598 17.8852 8.27361 17.8097 8.13914 17.6752C8.00468 17.5408 7.92914 17.3584 7.92914 17.1682V15.0172H17.9673V17.1682ZM17.9673 13.5832H13.6652V10.7151H17.9673V13.5832ZM17.9673 9.28112H7.92914V8.56412C7.92914 8.37395 8.00468 8.19158 8.13914 8.05711C8.27361 7.92265 8.45598 7.84711 8.64615 7.84711H17.2503C17.4404 7.84711 17.6228 7.92265 17.7573 8.05711C17.8917 8.19158 17.9673 8.37395 17.9673 8.56412V9.28112ZM15.5438 17.1109C15.63 17.1476 15.7225 17.1671 15.8162 17.1682C16.0064 17.1682 16.1888 17.0927 16.3232 16.9582C16.4577 16.8238 16.5333 16.6414 16.5333 16.4512C16.5368 16.4035 16.5368 16.3556 16.5333 16.3078C16.5254 16.2629 16.5109 16.2194 16.4902 16.1788C16.4745 16.1331 16.4528 16.0897 16.4257 16.0497C16.3992 16.0121 16.3705 15.9762 16.3397 15.9421L16.2321 15.8561C16.1921 15.829 16.1487 15.8073 16.103 15.7916C16.0588 15.7645 16.0103 15.7451 15.9596 15.7342C15.8434 15.7099 15.7229 15.7149 15.609 15.7487C15.4951 15.7824 15.3914 15.844 15.3072 15.9278C15.2763 15.9619 15.2476 15.9978 15.2211 16.0354C15.194 16.0753 15.1723 16.1187 15.1566 16.1644C15.1359 16.2051 15.1214 16.2486 15.1136 16.2935C15.1101 16.3412 15.1101 16.3891 15.1136 16.4369C15.1144 16.625 15.189 16.8052 15.3215 16.9388C15.3835 17.0103 15.4591 17.0687 15.5438 17.1109ZM9.8077 17.1109C9.8939 17.1476 9.98647 17.1671 10.0802 17.1682C10.2703 17.1682 10.4527 17.0927 10.5872 16.9582C10.7216 16.8238 10.7972 16.6414 10.7972 16.4512C10.8007 16.4035 10.8007 16.3556 10.7972 16.3078C10.7893 16.2629 10.7748 16.2194 10.7542 16.1788C10.7385 16.1331 10.7168 16.0897 10.6896 16.0497C10.6632 16.0121 10.6344 15.9762 10.6036 15.9421L10.496 15.8561L10.367 15.7916L10.2236 15.7342C10.1073 15.7099 9.98678 15.7149 9.87289 15.7487C9.75901 15.7824 9.6553 15.844 9.57109 15.9278C9.54025 15.9619 9.51152 15.9978 9.48505 16.0354C9.45791 16.0753 9.43621 16.1187 9.42052 16.1644C9.39984 16.2051 9.38534 16.2486 9.3775 16.2935C9.37398 16.3412 9.37398 16.3891 9.3775 16.4369C9.37829 16.625 9.45297 16.8052 9.58543 16.9388C9.64744 17.0103 9.72298 17.0687 9.8077 17.1109Z" fill="white"/>
</svg>
