<svg width="15" height="27" viewBox="0 0 15 27" fill="none" xmlns="http://www.w3.org/2000/svg">
<path d="M8.54682 17.5722V5.97153C8.54682 5.65694 8.42185 5.35523 8.1994 5.13279C7.97695 4.91034 7.67525 4.78537 7.36066 4.78537C7.04607 4.78537 6.74436 4.91034 6.52191 5.13279C6.29946 5.35523 6.17449 5.65694 6.17449 5.97153V17.5722C5.81594 17.7792 5.51781 18.0764 5.30972 18.4344C5.10163 18.7923 4.99083 19.1984 4.98833 19.6124C4.98833 20.2416 5.23827 20.845 5.68317 21.2899C6.12807 21.7348 6.73148 21.9848 7.36066 21.9848C7.98984 21.9848 8.59325 21.7348 9.03815 21.2899C9.48304 20.845 9.73299 20.2416 9.73299 19.6124C9.73049 19.1984 9.61969 18.7923 9.4116 18.4344C9.2035 18.0764 8.90537 17.7792 8.54682 17.5722ZM12.6984 14.8678V5.97153C12.6984 4.55587 12.136 3.1982 11.135 2.19718C10.134 1.19616 8.77631 0.633789 7.36066 0.633789C5.945 0.633789 4.58732 1.19616 3.5863 2.19718C2.58528 3.1982 2.02292 4.55587 2.02292 5.97153V14.8678C1.20309 15.7968 0.639999 16.9237 0.389344 18.1371C0.138689 19.3505 0.209154 20.6083 0.59377 21.7861C0.978386 22.964 1.66383 24.0209 2.58229 24.8526C3.50075 25.6842 4.6204 26.2616 5.8305 26.5278C6.33319 26.6423 6.84545 26.7099 7.36066 26.7294C8.73735 26.7358 10.0864 26.3428 11.2442 25.598C12.402 24.8532 13.319 23.7885 13.8839 22.5331C14.4489 21.2776 14.6376 19.8853 14.4271 18.5247C14.2167 17.1642 13.6162 15.8939 12.6984 14.8678ZM10.3261 23.254C9.70131 23.7619 8.95757 24.1025 8.16485 24.2437C7.37213 24.3849 6.55652 24.322 5.7948 24.061C5.03309 23.8 4.35034 23.3494 3.81083 22.7517C3.27131 22.154 2.89279 21.4288 2.71089 20.6444C2.52763 19.8515 2.5514 19.0248 2.7799 18.2437C3.0084 17.4627 3.43396 16.7535 4.01567 16.1844C4.12775 16.0746 4.21691 15.9435 4.278 15.799C4.33908 15.6544 4.37087 15.4992 4.37152 15.3422V5.97153C4.37152 5.18505 4.68395 4.43079 5.24007 3.87467C5.79619 3.31854 6.55046 3.00612 7.33693 3.00612C8.12341 3.00612 8.87767 3.31854 9.4338 3.87467C9.98992 4.43079 10.3023 5.18505 10.3023 5.97153V15.3897C10.303 15.5466 10.3348 15.7019 10.3959 15.8464C10.457 15.991 10.5461 16.122 10.6582 16.2319C11.143 16.7002 11.5225 17.2666 11.7713 17.8931C12.0201 18.5197 12.1326 19.192 12.1011 19.8654C12.0697 20.5388 11.8951 21.1978 11.5891 21.7985C11.283 22.3991 10.8524 22.9276 10.3261 23.3488V23.254Z" fill="#6E7BF7"/>
</svg>
