<svg width="19" height="26" viewBox="0 0 19 26" fill="none" xmlns="http://www.w3.org/2000/svg">
<path d="M17.6518 4.17689L7.31468 3.31973L3.47665 2.9999V1.61821C3.47665 1.27891 3.34186 0.953501 3.10194 0.713578C2.86202 0.473655 2.53661 0.338867 2.19731 0.338867C1.85801 0.338867 1.5326 0.473655 1.29268 0.713578C1.05276 0.953501 0.917969 1.27891 0.917969 1.61821V24.6464C0.917969 24.9857 1.05276 25.3111 1.29268 25.551C1.5326 25.7909 1.85801 25.9257 2.19731 25.9257C2.53661 25.9257 2.86202 25.7909 3.10194 25.551C3.34186 25.3111 3.47665 24.9857 3.47665 24.6464V15.5886L7.31468 15.2688L17.6518 14.4116C17.973 14.3858 18.2727 14.2398 18.4909 14.0026C18.7091 13.7654 18.8298 13.4546 18.8288 13.1323V5.45623C18.8298 5.13394 18.7091 4.82313 18.4909 4.58595C18.2727 4.34876 17.973 4.20267 17.6518 4.17689ZM6.03534 12.8125L3.47665 13.0171V5.57138L6.03534 5.77607V12.8125ZM11.1527 12.3775L8.59402 12.595V5.99356L11.1527 6.21105V12.3775ZM16.2701 11.9553L13.7114 12.1728V6.41574L16.2701 6.63323V11.9553Z" fill="#6E7BF7"/>
</svg>
