<svg width="19" height="15" viewBox="0 0 19 15" fill="none" xmlns="http://www.w3.org/2000/svg">
<path d="M8.14951 5.40093H13.3517C13.943 5.40093 14.5101 5.16604 14.9282 4.74792C15.3463 4.32981 15.5812 3.76272 15.5812 3.17141C15.5812 2.58011 15.3463 2.01302 14.9282 1.59491C14.5101 1.17679 13.943 0.941895 13.3517 0.941895C12.9608 0.943512 12.5768 1.0459 12.237 1.23916C12.1518 1.28772 12.0771 1.35263 12.0171 1.43018C11.9572 1.50773 11.9131 1.59637 11.8876 1.69101C11.862 1.78565 11.8554 1.8844 11.8682 1.98159C11.881 2.07878 11.9128 2.17249 11.962 2.25731C12.0112 2.34185 12.0765 2.41585 12.1544 2.47507C12.2322 2.5343 12.3209 2.57758 12.4155 2.60243C12.5101 2.62729 12.6087 2.63323 12.7056 2.61992C12.8024 2.6066 12.8958 2.5743 12.9801 2.52485C13.0945 2.46334 13.2219 2.4302 13.3517 2.42824C13.5488 2.42824 13.7378 2.50654 13.8772 2.64591C14.0166 2.78528 14.0949 2.97431 14.0949 3.17141C14.0949 3.36852 14.0166 3.55754 13.8772 3.69692C13.7378 3.83629 13.5488 3.91459 13.3517 3.91459H8.14951C7.95241 3.91459 7.76338 3.99288 7.62401 4.13226C7.48463 4.27163 7.40634 4.46066 7.40634 4.65776C7.40634 4.85486 7.48463 5.04389 7.62401 5.18326C7.76338 5.32263 7.95241 5.40093 8.14951 5.40093ZM1.46095 8.37362H10.379C10.5761 8.37362 10.7652 8.29533 10.9045 8.15595C11.0439 8.01658 11.1222 7.82755 11.1222 7.63045C11.1222 7.43335 11.0439 7.24432 10.9045 7.10495C10.7652 6.96558 10.5761 6.88728 10.379 6.88728H1.46095C1.26385 6.88728 1.07482 6.96558 0.935445 7.10495C0.796073 7.24432 0.717773 7.43335 0.717773 7.63045C0.717773 7.82755 0.796073 8.01658 0.935445 8.15595C1.07482 8.29533 1.26385 8.37362 1.46095 8.37362ZM16.3244 6.88728H13.3517C13.1546 6.88728 12.9656 6.96558 12.8262 7.10495C12.6868 7.24432 12.6085 7.43335 12.6085 7.63045C12.6085 7.82755 12.6868 8.01658 12.8262 8.15595C12.9656 8.29533 13.1546 8.37362 13.3517 8.37362H16.3244C16.5215 8.37362 16.7105 8.45192 16.8499 8.59129C16.9893 8.73067 17.0676 8.9197 17.0676 9.1168C17.0676 9.3139 16.9893 9.50293 16.8499 9.6423C16.7105 9.78167 16.5215 9.85997 16.3244 9.85997C16.1273 9.85997 15.9383 9.93827 15.7989 10.0776C15.6595 10.217 15.5812 10.406 15.5812 10.6031C15.5812 10.8002 15.6595 10.9893 15.7989 11.1286C15.9383 11.268 16.1273 11.3463 16.3244 11.3463C16.9157 11.3463 17.4828 11.1114 17.9009 10.6933C18.319 10.2752 18.5539 9.7081 18.5539 9.1168C18.5539 8.52549 18.319 7.9584 17.9009 7.54029C17.4828 7.12217 16.9157 6.88728 16.3244 6.88728ZM11.8654 9.85997H8.89268C8.69558 9.85997 8.50655 9.93827 8.36718 10.0776C8.22781 10.217 8.14951 10.406 8.14951 10.6031C8.14951 10.8002 8.22781 10.9893 8.36718 11.1286C8.50655 11.268 8.69558 11.3463 8.89268 11.3463H11.8654C12.0625 11.3463 12.2515 11.4246 12.3909 11.564C12.5302 11.7034 12.6085 11.8924 12.6085 12.0895C12.6085 12.2866 12.5302 12.4756 12.3909 12.615C12.2515 12.7544 12.0625 12.8327 11.8654 12.8327C11.7356 12.8307 11.6081 12.7976 11.4938 12.736C11.4092 12.6823 11.3146 12.6462 11.2157 12.6299C11.1168 12.6136 11.0156 12.6175 10.9183 12.6414C10.8209 12.6652 10.7294 12.7085 10.6492 12.7687C10.569 12.8288 10.5018 12.9045 10.4517 12.9913C10.4015 13.0781 10.3694 13.1741 10.3573 13.2736C10.3453 13.3731 10.3534 13.474 10.3813 13.5703C10.4093 13.6665 10.4564 13.7562 10.5198 13.8338C10.5833 13.9113 10.6618 13.9753 10.7506 14.0217C11.0905 14.215 11.4744 14.3174 11.8654 14.319C12.4567 14.319 13.0238 14.0841 13.4419 13.666C13.86 13.2479 14.0949 12.6808 14.0949 12.0895C14.0949 11.4982 13.86 10.9311 13.4419 10.513C13.0238 10.0949 12.4567 9.85997 11.8654 9.85997ZM5.91999 9.85997H5.17682C4.97971 9.85997 4.79069 9.93827 4.65131 10.0776C4.51194 10.217 4.43364 10.406 4.43364 10.6031C4.43364 10.8002 4.51194 10.9893 4.65131 11.1286C4.79069 11.268 4.97971 11.3463 5.17682 11.3463H5.91999C6.11709 11.3463 6.30613 11.268 6.4455 11.1286C6.58487 10.9893 6.66317 10.8002 6.66317 10.6031C6.66317 10.406 6.58487 10.217 6.4455 10.0776C6.30613 9.93827 6.11709 9.85997 5.91999 9.85997Z" fill="#6E7BF7"/>
<path d="M5.08602 5.40093H3.59967C3.40257 5.40093 3.21354 5.32263 3.07417 5.18326C2.9348 5.04389 2.8565 4.85486 2.8565 4.65776C2.8565 4.46066 2.9348 4.27163 3.07417 4.13226C3.21354 3.99288 3.40257 3.91459 3.59967 3.91459H5.08602C5.28312 3.91459 5.47215 3.99288 5.61152 4.13226C5.75089 4.27163 5.82919 4.46066 5.82919 4.65776C5.82919 4.85486 5.75089 5.04389 5.61152 5.18326C5.47215 5.32263 5.28312 5.40093 5.08602 5.40093Z" fill="#6E7BF7"/>
</svg>
