<svg width="28" height="28" viewBox="0 0 28 28" fill="none" xmlns="http://www.w3.org/2000/svg">
<path fill-rule="evenodd" clip-rule="evenodd" d="M0.0732422 13.895C0.0732422 6.34937 6.191 0.232422 13.7376 0.232422C21.2843 0.232422 27.4021 6.34937 27.4021 13.895C27.4021 21.4406 21.2843 27.5576 13.7376 27.5576C6.191 27.5576 0.0732422 21.4406 0.0732422 13.895ZM9.73008 11.5482H6.63342V20.8511H9.73008V11.5482ZM9.93415 8.67067C9.91405 7.75853 9.26168 7.06378 8.20234 7.06378C7.14299 7.06378 6.45043 7.75853 6.45043 8.67067C6.45043 9.56392 7.12252 10.2787 8.16214 10.2787H8.18193C9.26168 10.2787 9.93415 9.56392 9.93415 8.67067ZM20.8978 15.5173C20.8978 12.6598 19.3701 11.3299 17.3324 11.3299C15.6883 11.3299 14.9522 12.2329 14.5412 12.8663V11.5486H11.4441C11.485 12.4216 11.4441 20.8516 11.4441 20.8516H14.5412V15.656C14.5412 15.378 14.5613 15.1006 14.6431 14.9016C14.867 14.3461 15.3765 13.7711 16.232 13.7711C17.353 13.7711 17.8011 14.6241 17.8011 15.8742V20.8513H20.8977L20.8978 15.5173Z" fill="black"/>
</svg>
