<svg width="28" height="29" viewBox="0 0 28 29" fill="none" xmlns="http://www.w3.org/2000/svg">
<path fill-rule="evenodd" clip-rule="evenodd" d="M0.0722656 14.3989C0.0722656 6.85327 6.19003 0.736328 13.7367 0.736328C21.2833 0.736328 27.4011 6.85327 27.4011 14.3989C27.4011 21.9445 21.2833 28.0615 13.7367 28.0615C6.19003 28.0615 0.0722656 21.9445 0.0722656 14.3989ZM13.3274 11.8414L13.3561 12.3142L12.8782 12.2563C11.1386 12.0344 9.61893 11.2819 8.32861 10.018L7.69778 9.39083L7.53529 9.85394C7.19121 10.8863 7.41104 11.9765 8.12789 12.7098C8.51021 13.115 8.42419 13.1729 7.76469 12.9317C7.53529 12.8545 7.33458 12.7966 7.31546 12.8255C7.24856 12.8931 7.47795 13.7711 7.65955 14.1184C7.90806 14.6008 8.41463 15.0736 8.96899 15.3533L9.43733 15.5753L8.88297 15.5849C8.34772 15.5849 8.32861 15.5945 8.38595 15.7972C8.57711 16.4243 9.33219 17.09 10.1733 17.3794L10.7659 17.5821L10.2498 17.8908C9.48512 18.3346 8.58667 18.5855 7.68822 18.6047C7.25811 18.6144 6.90447 18.653 6.90447 18.6819C6.90447 18.7784 8.07054 19.3187 8.74916 19.531C10.785 20.1581 13.2032 19.8879 15.0192 18.817C16.3095 18.0548 17.5998 16.5401 18.202 15.0736C18.527 14.2921 18.8519 12.8641 18.8519 12.1791C18.8519 11.7353 18.8806 11.6774 19.4159 11.1468C19.7313 10.838 20.0276 10.5004 20.0849 10.4039C20.1805 10.2206 20.1709 10.2206 19.6835 10.3846C18.871 10.674 18.7564 10.6354 19.1578 10.2013C19.4541 9.89253 19.8077 9.33294 19.8077 9.16892C19.8077 9.13998 19.6644 9.18822 19.5019 9.27505C19.3298 9.37153 18.9475 9.51626 18.6608 9.60309L18.1446 9.76711L17.6763 9.44872C17.4182 9.27505 17.055 9.08209 16.8639 9.0242C16.3764 8.88913 15.6309 8.90843 15.1912 9.0628C13.9965 9.49696 13.2414 10.6161 13.3274 11.8414Z" fill="black"/>
</svg>
